<?xml version="1.0" encoding="UTF-8" standalone="no"?>
<svg width="283px" height="281px" viewBox="0 0 283 281" version="1.1" xmlns="http://www.w3.org/2000/svg" xmlns:xlink="http://www.w3.org/1999/xlink" xmlns:sketch="http://www.bohemiancoding.com/sketch/ns">
    <!-- Generator: Sketch 3.3.1 (12005) - http://www.bohemiancoding.com/sketch -->
    <title>4 fromages</title>
    <desc>Created with Sketch.</desc>
    <defs></defs>
    <g id="Pizzas" stroke="none" stroke-width="1" fill="none" fill-rule="evenodd" sketch:type="MSPage">
        <g id="iPhone-6" sketch:type="MSArtboardGroup" transform="translate(-44.000000, -350.000000)">
            <g id="4-fromages" sketch:type="MSLayerGroup" transform="translate(44.105023, 350.455395)">
                <path d="M191.366976,16.9934415 C259.177701,44.7046589 291.623769,121.991265 263.837192,189.618081 C236.050901,257.244611 158.554116,289.602682 90.7433913,261.89175 C22.9326665,234.180533 -9.51340158,156.893926 18.2731757,89.2671109 C46.0594666,21.640581 123.556252,-10.7174903 191.366976,16.9934415" id="Fill-1" fill="#C2523A" sketch:type="MSShapeGroup"></path>
                <path id="Fill-2" fill="#F7CE74" sketch:type="MSShapeGroup" d="M276.998471,105.264247 C276.99933,105.268531 277.000189,105.272528 277.001334,105.276812 C277.003339,105.282523 277.005343,105.287948 277.007347,105.293374 L276.998471,105.264247"></path>
                <path d="M194.427013,11.0433098 C191.439418,9.94134891 188.419182,8.92848154 185.377757,7.98557541 C178.576784,5.87702941 171.671586,4.11943182 164.734319,2.5206034 C154.174372,0.0865234882 143.370183,-0.646213379 132.592623,1.02114849 C122.053578,2.65167364 111.576381,4.67712282 101.071982,6.52923947 C100.83318,6.56493397 100.594379,6.60062848 100.355291,6.63632299 C99.3525544,6.97984694 98.3615572,7.36277763 97.3450764,7.65947038 C93.6261882,8.74572566 89.9648529,10.2488928 86.1869802,11.0812887 C85.2990627,11.2768946 84.3976876,11.4179593 83.5240867,11.6701053 C81.5054417,12.2526397 80.1674093,13.5613432 78.4342379,14.5947706 C76.3809467,15.819235 74.2282979,16.9006358 72.1380698,18.0622779 C67.9533184,20.3878465 63.7949096,22.763673 59.731277,25.294842 C50.5385679,31.0205266 42.3792333,38.1214494 35.9404715,46.9008706 C29.6445897,55.4855427 23.6719774,64.306084 17.5576304,73.0232541 C17.4138915,73.2168611 17.2701525,73.4107536 17.1266998,73.6046462 C16.661123,74.5544057 16.2319104,75.5241541 15.72367,76.4507835 C12.0571807,83.1356511 8.90064976,90.0392545 7.55689073,97.5887858 C5.32263723,110.141831 3.33462979,122.738565 1.09207265,135.290468 C-0.664578031,145.121306 0.327278194,154.717418 3.08237075,164.206161 C5.04088592,170.951566 7.2433565,177.630437 9.05469671,184.413821 C12.6347136,197.821535 18.5053914,210.12272 26.4525536,221.472431 C33.9132365,232.12767 42.6853229,241.585858 52.5752519,250.036033 C58.4413485,255.048113 64.7827572,259.236935 72.0856709,261.906884 C80.014794,264.80585 87.8940953,267.840739 95.8249365,270.734565 C99.3929273,272.036415 102.962636,273.465337 106.655754,274.267464 C115.216527,276.127577 123.822255,277.830347 132.468068,279.240423 C140.490822,280.549412 148.627823,280.96147 156.651149,279.303531 C163.526282,277.882604 170.358751,276.184973 177.112193,274.266037 C187.478579,271.320526 198.025355,268.873596 207.801324,264.133651 C207.954225,264.064832 208.107127,263.996013 208.260029,263.927194 L208.245998,263.931762 C210.72163,262.458579 213.294902,261.124461 215.65371,259.484227 C219.314186,256.938494 222.931713,254.332224 226.545803,251.722242 C228.393221,250.388124 230.223173,249.024022 232.093498,247.722172 C232.781269,247.24358 233.540336,247.105086 234.229825,246.603649 C235.06563,245.9957 235.79721,245.257252 236.512183,244.515092 C238.141988,242.823744 239.617746,240.995614 241.226363,239.289702 C242.707848,237.718572 244.265784,236.144302 245.625864,234.4461 C245.948275,234.042609 246.270399,233.639118 246.592809,233.235628 C247.339851,232.315851 248.086893,231.39579 248.833362,230.476014 C250.725734,227.872599 252.707443,225.328295 254.491009,222.65292 C257.756919,217.753063 260.905718,212.775821 264.103481,207.831132 C268.547936,200.269607 271.526368,192.045878 274.91941,184.009759 C275.854859,181.787848 276.471905,179.368902 277.2367,177.081884 C278.007221,174.778017 278.587617,172.427891 279.166868,170.069198 C280.357726,165.219885 281.419447,160.33916 282.350314,155.433878 C282.520396,154.53609 282.687041,153.630877 282.681887,152.717098 C282.678452,152.10458 282.597706,151.495489 282.517246,150.888111 C282.354037,149.656793 282.181378,148.426332 282.027331,147.194158 C281.908217,146.242971 282.147877,145.398296 282.161048,144.444824 C282.196267,141.892238 282.209152,139.338225 282.165057,136.785354 C282.120103,134.201642 281.726109,131.624499 281.52224,129.04193 C281.489026,128.620164 281.626752,128.185262 281.685164,127.756642 C281.529399,126.503051 281.373634,125.24946 281.217582,123.996154 C281.124811,123.939043 280.945566,123.842811 280.951293,123.830532 C281.990108,121.551223 279.651343,119.845311 279.909615,117.704783 C279.761867,117.414944 279.542823,117.140239 279.477539,116.833266 C279.023129,114.699876 278.601075,112.559634 278.168713,110.421675 C278.083958,110.045313 277.999776,109.66895 277.915595,109.292587 C277.776437,108.739179 277.636993,108.185771 277.498122,107.632364 L277.503848,107.645499 C277.336344,106.855937 277.168839,106.066374 277.001334,105.276812 C276.560382,104.09975 276.11943,102.922402 275.678478,101.74534 C273.382663,96.1575788 271.197372,90.5209876 268.748655,85.0009033 C267.334459,81.8135265 265.479882,78.82147 263.861244,75.72233 C263.594382,75.2114702 263.519935,74.6009513 263.356439,74.0366925 C262.814698,73.1928744 262.273243,72.3493417 261.731502,71.5055236 C260.323891,69.1536838 258.910553,66.8049852 257.511245,64.4482909 C256.649384,62.997095 255.808711,61.5333346 254.95859,60.0752853 C254.78135,59.8905306 254.60411,59.7054902 254.426584,59.5204499 C252.201779,56.4227377 249.976975,53.3247399 247.75217,50.2267421 C246.985658,49.1599047 245.933672,48.3454988 244.965008,47.473125 C243.990618,46.5956112 243.442291,45.6641273 242.658885,44.6344121 C241.117557,42.6086774 239.033055,41.0732424 236.967738,39.619762 C234.26619,37.7185297 231.515392,35.8841176 228.892585,33.876944 C226.679234,32.1830254 224.561518,30.3694588 222.444947,28.5570345 C218.234712,24.9516036 214.061414,21.4775284 209.271356,18.6402434 C207.741194,17.7338884 206.187267,16.8677969 204.621886,16.023122 C201.639732,14.413728 198.63868,12.626147 195.464396,11.4302382 C195.119079,11.3000247 194.773189,11.1709533 194.427013,11.0433098 L194.427013,11.0433098 Z M197.916835,27.3082978 C203.038467,30.4200022 208.071622,33.6907614 213.010001,37.0860231 C219.796084,41.7520092 226.243722,46.8406183 232.082044,52.691091 C236.824572,57.4436006 240.854417,62.70697 244.270365,68.4512159 C246.44907,72.1151858 248.517537,75.8448336 250.63554,79.5447835 C252.244729,82.3163907 253.973605,85.0268889 255.433043,87.8747395 C257.279602,91.4773149 259.161953,95.0975947 260.565269,98.8814981 C262.395507,103.816193 263.785652,108.914511 265.319536,113.956288 C265.47072,114.453442 265.303501,115.046542 265.284603,115.59538 C265.890769,117.594844 266.69336,119.558613 267.066738,121.600339 C268.471485,129.276943 268.835987,137.049208 268.922459,144.837178 C269.003778,152.15341 268.483798,159.412531 266.689065,166.532871 C266.119263,168.794476 265.520255,171.064932 264.704493,173.246009 C262.536955,179.043654 260.45904,184.889272 257.954202,190.543568 C253.251761,201.160542 247.000261,210.866022 239.943307,220.092624 C234.703133,226.943971 229.104185,233.436373 222.220462,238.671473 C217.526898,242.240924 212.64464,245.577361 207.720005,248.827274 C200.624683,253.509537 192.665781,256.178344 184.516754,258.399685 C176.996801,260.449977 169.571337,262.853217 162.02504,264.795855 C154.989275,266.607423 147.836113,267.513207 140.496549,266.818163 C130.877491,265.906668 121.389859,264.288708 111.989845,262.135329 C109.230171,261.503394 106.520892,260.58219 103.861148,259.59902 C98.2009246,257.506751 92.604267,255.24429 86.9509156,253.134031 C83.2426218,251.749941 79.4395518,250.61457 75.7513012,249.182506 C69.8499857,246.891775 64.7357986,243.31233 60.1450276,239.016996 C55.8766671,235.022923 51.4754483,231.121656 47.6142528,226.755789 C43.4160438,222.009276 39.7426825,216.797021 35.8975216,211.744678 C32.4807144,207.256022 29.8229749,202.296199 27.6763392,197.121066 C25.4609837,191.780882 23.4910152,186.322478 21.7372278,180.81353 C19.4457078,173.61609 17.3884079,166.340692 15.3835068,159.057014 C13.1005768,150.762752 12.9279182,142.414521 14.742408,133.955779 C16.2327694,127.008485 17.3646423,119.981521 18.5366017,112.970263 C19.6704789,106.186022 20.1042728,99.2624299 22.6262906,92.7648872 C24.9510252,86.7762053 27.9168586,81.1113441 31.5905062,75.8351247 C36.3527905,68.9946291 40.9999691,62.0641833 46.0193801,55.4147248 C50.9703575,48.8566441 56.8808357,43.1892129 63.779734,38.6206014 C64.1067259,38.4158577 64.4337177,38.2108284 64.7607096,38.0060847 C66.9946768,36.4603697 69.1310045,34.7441778 71.4820817,33.4023498 C77.3624949,30.0464949 83.3282352,26.8382725 89.2825222,23.6129167 C95.9348882,22.3110666 102.304644,19.6182729 109.001391,18.4132263 C117.218851,16.934617 125.418845,15.3112307 133.682691,14.1493031 C141.833436,13.0030811 150.031139,13.1638491 158.148383,14.7980865 C158.52491,14.8840389 158.901438,14.9697057 159.277965,15.0553725 C161.953457,15.5379623 164.681062,15.8306572 167.294992,16.5399785 C171.663283,17.7253217 175.991487,19.1473909 180.325417,20.3604331 C183.384595,21.2162446 186.513638,21.872738 189.472886,23.0495146 C192.326191,24.1840289 195.291451,25.7137527 197.916835,27.3082978 L197.916835,27.3082978 Z" id="Fill-3" fill="#F7CE74" sketch:type="MSShapeGroup"></path>
                <path d="M245.873828,161.27864 C248.1496,167.836435 255.068541,174.061843 252.085814,180.331512 C249.585558,185.5866 241.975982,185.891574 237.950145,190.100385 C231.980969,196.340927 235.531207,209.113564 227.850621,213.077083 C224.471037,214.820973 219.912335,214.012564 217.144071,216.61655 C213.607291,219.943564 215.460149,226.506499 212.042769,229.955731 C210.233433,231.781576 207.476623,232.17136 204.95575,232.689359 C196.331411,234.462091 188.279165,238.906771 182.194024,245.254111 C178.721096,248.87639 175.471507,253.349055 170.558898,254.403613 C167.230281,255.118074 163.814046,254.077794 160.484571,253.368758 C150.759569,251.298477 140.439855,252.089752 131.14693,255.618369 C128.717397,256.541 126.230026,257.666948 123.64072,257.436504 C119.187675,257.040438 115.863639,252.786795 111.433787,252.182844 C108.697879,251.809622 105.608922,252.826773 103.326565,251.276203 C100.858664,249.599704 100.878707,245.997128 99.3980813,243.411132 C98.318321,241.525891 96.4597359,240.236606 94.662426,239.011856 C84.5712052,232.136237 74.4802707,225.260618 64.3893362,218.384713 C62.3386219,216.987773 60.2704413,215.575698 58.5693392,213.771555 C57.0835592,212.196142 55.9104544,210.354877 54.8515963,208.467351 C52.4930745,204.261967 50.6656996,199.785304 48.8446241,195.322063 C42.7961337,180.49742 36.7476432,165.672491 30.6988664,150.847562 C29.3310555,147.494848 27.9598085,144.134996 26.2501164,140.942193 C25.1594754,138.905322 23.9133558,136.888154 23.4967418,134.617127 C22.9103326,131.422325 24.0373378,128.189831 25.1468768,125.13638 L41.6215972,79.7997851 C42.2701406,78.0147741 42.9773822,76.1438108 44.436247,74.9236297 C47.3539764,72.4832675 51.7855465,73.6637563 55.4508905,72.6328989 C62.2693294,70.7153899 64.4013621,62.2266647 69.34919,57.1700379 C75.833765,50.5422816 86.4269269,50.4871693 94.656413,46.1986883 C99.3365198,43.7600395 103.172804,39.981276 107.651333,37.1913932 C113.866183,33.3198241 121.100949,31.4751319 128.205434,29.6846954 C133.820704,28.2694795 139.889524,26.8779648 145.264273,29.0299153 C149.742229,30.8229218 152.943428,34.7818712 156.971842,37.4306892 C164.637539,42.4704683 174.449299,42.3505347 183.431554,44.2469125 C194.349131,46.5519211 204.550876,52.1254044 212.37606,60.0595797 C215.986715,63.7206941 219.737099,68.1887899 224.881924,68.3921058 C227.927072,68.5126104 230.977946,67.0419967 233.948074,67.7239046 C238.06067,68.668524 240.127419,73.1548954 241.589433,77.1029936 C244.057334,83.76673 246.510918,90.5481154 247.049224,97.6316192 C247.565481,104.424427 244.407232,108.526154 243.382162,114.611354 C242.116571,122.138041 245.665951,129.626463 246.120933,137.020652 C246.608844,144.949973 243.20349,153.584903 245.873828,161.27864" id="Fill-4" fill="#EFC29A" sketch:type="MSShapeGroup"></path>
                <path d="M62.565111,170.860188 C65.5189184,171.50583 68.6923429,171.908179 71.4963983,170.779661 C75.3424182,169.232233 77.5274225,165.256721 79.4069099,161.570193 C79.4260942,161.532499 79.4455648,161.494806 79.4647491,161.456827 C83.9255251,152.707674 92.6294643,143.479359 81.5458146,135.932683 C77.2837534,133.030577 72.0736449,131.512275 68.3444488,127.954532 C67.3964014,127.050176 66.5090566,125.992762 65.2726723,125.55529 C63.7052875,125.000455 61.9858601,125.576707 60.4247746,126.149247 C56.215685,127.693249 51.6967834,129.482543 49.3514329,133.294431 C47.2405887,136.725958 47.2901243,141.23803 44.8328176,144.431974 C44.0514159,145.447411 43.0363667,146.296655 42.4425129,147.431741 C40.6835715,150.793307 43.3038014,154.765106 46.1058525,157.327686 C48.9081899,159.890266 52.3121122,162.581632 52.4784715,166.369819 C55.8131013,168.515202 58.627751,170.098896 62.565111,170.860188" id="Fill-5" fill="#F0EFDA" sketch:type="MSShapeGroup"></path>
                <path d="M163.889638,179.908889 C161.186372,181.260711 158.466212,182.93921 156.998471,185.576034 C154.985839,189.192316 155.795874,193.652988 156.661171,197.697889 C156.669761,197.739295 156.678924,197.780701 156.6878,197.822106 C158.740805,207.421645 157.798484,220.055787 171.174227,218.966105 C176.317906,218.547195 181.325291,216.457781 186.468398,216.882688 C187.775792,216.990628 189.132436,217.255624 190.36968,216.820151 C191.93821,216.267601 192.910882,214.740732 193.762721,213.316093 C196.059968,209.474793 198.443401,205.248563 197.861,200.813877 C197.336725,196.822375 194.451351,193.346586 194.346267,189.322244 C194.31248,188.042382 194.565598,186.745387 194.311048,185.490653 C193.557135,181.774427 189.01504,180.331512 185.219987,180.098212 C181.425221,179.864913 177.081269,179.909174 174.562114,177.069319 C170.616737,177.494512 167.429855,178.02993 163.889638,179.908889" id="Fill-6" fill="#F0EFDA" sketch:type="MSShapeGroup"></path>
                <path d="M221.364614,117.992338 C218.410807,117.346696 215.237669,116.944347 212.433327,118.072865 C208.587307,119.620293 206.402589,123.595805 204.522815,127.282333 C204.503631,127.320027 204.484447,127.358006 204.465262,127.395699 C200.0042,136.144852 191.300547,145.373167 202.38391,152.919843 C206.645972,155.821949 211.85608,157.340251 215.585276,160.897994 C216.533324,161.80235 217.420668,162.859764 218.657053,163.297236 C220.224724,163.852071 221.943865,163.275819 223.505237,162.703279 C227.71404,161.159277 232.232942,159.369983 234.578292,155.558095 C236.689423,152.126568 236.639601,147.614496 239.096907,144.420552 C239.878309,143.405115 240.893358,142.555871 241.487212,141.420785 C243.246154,138.059219 240.625924,134.08742 237.823873,131.52484 C235.021535,128.96226 231.617613,126.270894 231.451254,122.482707 C228.116624,120.337324 225.301974,118.75363 221.364614,117.992338" id="Fill-7" fill="#F0EFDA" sketch:type="MSShapeGroup"></path>
                <path d="M163.311533,44.1678135 C161.073271,42.1403654 158.522906,40.2148609 155.52758,39.7996624 C151.420139,39.2302636 147.539472,41.5915267 144.067689,43.8539874 C144.032184,43.8771174 143.996679,43.9002475 143.961174,43.9233775 C135.721952,49.2924027 123.565128,52.9686515 129.404309,65.0194031 C131.64973,69.6534069 135.408418,73.5586717 136.864419,78.4965072 C137.234361,79.7515261 137.475453,81.1093452 138.328724,82.1030803 C139.411062,83.3632392 141.189187,83.7178999 142.829014,83.9971737 C147.249704,84.7498995 152.06181,85.4440863 155.999743,83.3044147 C159.544254,81.378339 161.755601,77.4413775 165.481934,75.8933781 C166.667065,75.4010794 167.971024,75.1692079 169.053075,74.4801611 C172.257709,72.4395775 171.970231,67.6942067 170.820892,64.0796381 C169.671553,60.4653549 168.064941,56.4404422 169.813288,53.0734506 C167.994216,49.5562565 166.344941,46.7843638 163.311533,44.1678135" id="Fill-8" fill="#F0EFDA" sketch:type="MSShapeGroup"></path>
                <path d="M110.319953,107.748585 C113.022933,106.397048 115.743093,104.718264 117.210548,102.081439 C119.223466,98.4654429 118.413431,94.0044861 117.548134,89.9595844 C117.539258,89.9181788 117.530381,89.8767731 117.521505,89.8353675 C115.4685,80.2361148 116.410821,67.6019721 103.034792,68.6913685 C97.891399,69.1102793 92.884014,71.199693 87.7409074,70.7747856 C86.4335126,70.6668454 85.0768686,70.4018494 83.8396253,70.8376079 C82.2710952,71.3901589 81.2984232,72.9167416 80.4465836,74.3416664 C78.149337,78.1826811 75.7659042,82.4091964 76.3483047,86.8435966 C76.8725798,90.8353848 79.7579537,94.3111733 79.8630377,98.3355149 C79.896825,99.6150917 79.643707,100.912087 79.8982567,102.166821 C80.6521705,105.883333 85.194265,107.325962 88.9893176,107.559261 C92.7840839,107.792561 97.1277499,107.7483 99.6471907,110.588155 C103.592568,110.163247 106.77945,109.62783 110.319953,107.748585" id="Fill-9" fill="#F0EFDA" sketch:type="MSShapeGroup"></path>
                <path d="M109.008263,152.949826 C118.393961,150.540304 127.581229,152.442678 130.845421,163.924031 C131.495683,166.21105 131.551518,168.66312 131.006054,170.977266 C129.59787,176.95167 124.549826,181.272705 119.784964,185.156838 C117.639474,186.905583 115.493984,188.654614 113.348493,190.40336 C110.783812,192.493916 108.112042,194.640155 104.908266,195.47969 C98.6315689,197.124778 91.9024658,193.390276 85.595417,194.914289 C60.8459699,200.895261 80.0036271,175.138389 86.8538489,166.695353 C91.3020263,161.212962 100.241904,155.200579 109.008263,152.949826" id="Fill-10" fill="#D5E5BE" sketch:type="MSShapeGroup"></path>
                <path d="M141.921054,125.411085 C144.473709,128.968828 148.969704,130.462 153.163332,131.745289 C156.611063,132.800419 160.710487,133.748179 163.535158,131.51199 C166.724331,128.987389 166.241861,124.142644 167.304441,120.222531 C167.960716,117.800444 169.298748,115.579675 169.734546,113.108758 C170.219021,110.361423 169.549003,107.556691 168.882993,104.847621 C167.635728,99.7750031 166.361261,94.6312816 163.798871,90.0766624 C161.23648,85.5217575 157.180006,81.5499582 152.102183,80.2729515 C145.016023,78.4910816 137.504659,82.3617941 132.747243,87.8941574 C130.815356,90.1403414 129.150905,92.8516962 129.161499,95.8109137 C129.181829,101.430657 134.889297,105.200283 137.286474,110.286322 C139.550219,115.089946 138.823794,121.094619 141.921054,125.411085" id="Fill-11" fill="#D5E5BE" sketch:type="MSShapeGroup"></path>
                <path d="M164.6593,161.41228 C165.182716,154.077487 171.304508,147.521976 178.603699,146.480268 C181.495945,146.067354 184.436581,146.436007 187.335127,146.804659 C193.413682,147.577945 199.491951,148.350946 205.570506,149.124231 C207.867753,149.416355 210.229711,149.729325 212.251792,150.855558 C216.557376,153.254229 218.200925,158.865977 217.375714,163.71529 C216.550504,168.564317 213.770214,172.829383 210.993933,176.894559 C208.920884,179.930305 206.211891,183.270455 202.529367,183.225622 C200.356389,183.199351 198.417917,181.95861 196.403567,181.144775 C193.773888,180.082507 190.920584,179.731273 188.162055,179.069068 C178.35459,176.714659 169.634902,170.163717 164.6593,161.41228" id="Fill-12" fill="#D5E5BE" sketch:type="MSShapeGroup"></path>
                <path d="M82.3953635,224.744332 C84.633912,226.772066 87.1842767,228.697571 90.1796024,229.112483 C94.2870439,229.681882 98.16771,227.320905 101.639207,225.058444 C101.674712,225.035314 101.710217,225.012184 101.746009,224.989054 C109.984658,219.619743 122.141768,215.94378 116.302587,203.892743 C114.057167,199.258739 110.298478,195.353474 108.842763,190.415924 C108.472535,189.16062 108.231443,187.803086 107.378172,186.809066 C106.296121,185.549192 104.517709,185.194246 102.877882,184.915258 C98.4571923,184.162246 93.6453725,183.46806 89.7071535,185.608017 C86.1626419,187.533807 83.951295,191.470768 80.2249622,193.018768 C79.0401178,193.511066 77.7358726,193.742938 76.6538216,194.431985 C73.4494732,196.472568 73.7366648,201.218225 74.886004,204.832508 C76.0353432,208.446791 77.6419555,212.471989 75.8936085,215.838981 C77.712966,219.355889 79.3619556,222.127782 82.3953635,224.744332" id="Fill-13" fill="#F0EFDA" sketch:type="MSShapeGroup"></path>
                <path d="M162.157326,147.734716 C163.4023,144.440541 164.313983,141.027575 165.012348,137.57663 C165.442706,135.449522 165.739633,133.049709 164.487214,131.275264 C163.670307,130.118191 162.335711,129.45256 161.035761,128.88516 C154.833796,126.178374 148.177422,124.665783 141.514461,123.471017 C138.434668,122.918466 135.282145,122.430165 132.188894,122.901618 C127.229899,123.657485 122.836984,126.918249 120.178958,131.161327 C117.521219,135.404405 116.500729,140.538703 116.727218,145.536505 C116.901881,149.386372 117.870545,153.363026 120.408883,156.268844 C121.655289,157.695768 123.228401,158.805439 124.875959,159.744347 C130.182275,162.767815 136.556898,164.110214 142.535237,162.845772 C144.862262,162.353473 147.091362,161.484526 149.280661,160.556469 C152.312065,159.271466 155.363225,157.815701 157.660472,155.461292 C159.758145,153.311626 161.096463,150.541446 162.157326,147.734716" id="Fill-14" fill="#E2E2E2" sketch:type="MSShapeGroup"></path>
                <path d="M156.567254,151.559454 C158.670367,148.581104 159.485556,144.912279 160.254932,141.35111 C160.739693,139.106639 161.184368,136.600885 159.97633,134.646539 C159.175172,133.350971 157.783309,132.550557 156.414352,131.877216 C147.954082,127.716379 134.787649,124.634372 126.113202,129.886319 C112.37668,138.203425 122.069899,152.576319 133.902308,156.633214 C141.762712,159.328006 151.78149,158.337127 156.567254,151.559454" id="Fill-15" fill="#FFFFFF" sketch:type="MSShapeGroup"></path>
                <path d="M199.537764,116.956912 C203.063091,117.1331 206.600445,116.956626 210.108592,116.5657 C212.271262,116.32469 214.653264,115.873797 215.964953,114.142185 C216.819943,113.013382 217.04815,111.542483 217.192748,110.134977 C217.882809,103.418413 217.294396,96.6355997 216.399893,89.9430221 C215.986428,86.8495933 215.490214,83.7067632 214.094915,80.9131682 C211.858943,76.4347924 207.403608,73.2591234 202.540534,72.0312323 C197.677175,70.8030556 192.46363,71.4021523 187.760903,73.1437587 C184.137936,74.4855867 180.637234,76.6198327 178.637773,79.9180053 C177.656225,81.5373937 177.07726,83.3703781 176.684125,85.2216381 C175.417963,91.1840488 176.083113,97.6476104 179.116521,102.938679 C180.297357,104.998395 181.807761,106.849655 183.362548,108.645231 C185.515483,111.131282 187.837354,113.584209 190.786866,115.046542 C193.480111,116.381802 196.533849,116.806709 199.537764,116.956912" id="Fill-16" fill="#E2E2E2" sketch:type="MSShapeGroup"></path>
                <path d="M194.178476,112.81692 C197.664576,113.904317 201.416679,113.557938 205.051672,113.200707 C207.342905,112.975689 209.871222,112.632451 211.368169,110.888274 C212.360598,109.732058 212.699616,108.165497 212.924387,106.65976 C214.3131,97.355201 213.234199,83.9103647 205.57022,77.2768972 C193.433725,66.7727173 182.670768,80.3674705 182.411351,92.842844 C182.239265,101.130538 186.245345,110.342291 194.178476,112.81692" id="Fill-17" fill="#FFFFFF" sketch:type="MSShapeGroup"></path>
                <path d="M69.468018,130.769544 C72.9933453,130.945732 76.5306986,130.769259 80.038846,130.378332 C82.20123,130.137323 84.5832311,129.68643 85.8949209,127.954818 C86.7501965,126.825729 86.9784036,125.355116 87.1230015,123.94761 C87.8130632,117.231045 87.2243633,110.448232 86.3301465,103.755655 C85.9166822,100.662226 85.4201814,97.5193957 84.0251688,94.7258007 C81.788911,90.2474249 77.3335753,87.0717559 72.4705019,85.8438648 C67.6074286,84.6156881 62.3938841,85.2147848 57.691157,86.9563912 C54.0684766,88.2982192 50.5674875,90.4324652 48.5680268,93.7306378 C47.5864785,95.3500263 47.007514,97.1830106 46.6143793,99.0342706 C45.34793,104.996681 46.0133671,111.460243 49.0467749,116.751311 C50.2276107,118.810742 51.7380153,120.662287 53.2928015,122.457864 C55.4457365,124.943915 57.7676078,127.396841 60.7171202,128.859174 C63.4100786,130.194434 66.4641024,130.619342 69.468018,130.769544" id="Fill-18" fill="#E2E2E2" sketch:type="MSShapeGroup"></path>
                <path d="M64.1084439,126.629552 C67.5948299,127.71695 71.3466464,127.37057 74.9819254,127.01334 C77.2731591,126.788321 79.8014762,126.445083 81.2981369,124.700907 C82.2908521,123.54469 82.6298699,121.978129 82.854641,120.472392 C84.2433543,111.167833 83.164453,97.7229972 75.5004738,91.0895297 C63.363979,80.5853498 52.6010219,94.180103 52.3416045,106.655476 C52.1695186,114.94317 56.1755984,124.154923 64.1084439,126.629552" id="Fill-19" fill="#FFFFFF" sketch:type="MSShapeGroup"></path>
                <path d="M173.898968,214.655922 C173.051423,211.238673 171.861998,207.911659 170.475289,204.67431 C169.620299,202.678844 168.500739,200.534032 166.460046,199.780735 C165.129459,199.289579 163.651696,199.496036 162.258115,199.763602 C155.610617,201.04118 149.267776,203.559213 143.100171,206.342814 C140.249157,207.629529 137.374664,209.009622 135.094597,211.147295 C131.439561,214.574253 129.67518,219.744246 129.898233,224.742333 C130.121286,229.740421 132.199775,234.54633 135.228028,238.534977 C137.561067,241.60756 140.619672,244.335192 144.362898,245.293518 C146.200581,245.764114 148.127313,245.788387 150.018254,245.630189 C156.107976,245.120185 162.122107,242.620999 166.327761,238.198878 C167.964438,236.477546 169.306479,234.501212 170.582377,232.498893 C172.348763,229.726143 174.034117,226.801764 174.587884,223.563272 C175.093548,220.606625 174.620812,217.567737 173.898968,214.655922" id="Fill-20" fill="#E2E2E2" sketch:type="MSShapeGroup"></path>
                <path d="M171.794996,220.174864 C171.833651,216.532311 170.419454,213.049098 169.028164,209.680679 C168.151413,207.557855 167.093128,205.242281 164.986865,204.315937 C163.590421,203.701706 161.988676,203.829349 160.477985,204.048942 C151.143828,205.405619 138.546337,210.312614 134.387356,219.543785 C127.801133,234.162257 143.957165,240.520163 156.010051,237.170876 C164.017056,234.945537 171.706519,228.463986 171.794996,220.174864" id="Fill-21" fill="#FFFFFF" sketch:type="MSShapeGroup"></path>
                <path d="M89.2813769,111.294906 C91.534242,114.42203 94.4597025,117.055428 97.6912525,119.146841 C101.797835,121.804226 106.33678,123.693465 110.901781,125.409657 C115.420683,127.10843 119.932998,128.881162 124.468221,130.57765 C125.077823,130.80581 125.687425,131.033683 126.297027,131.261843 C125.02657,129.756962 123.386456,128.691267 122.364535,127.019336 C121.297946,125.274303 120.296355,123.48815 119.147302,121.794802 C116.456634,117.830999 112.949346,114.499702 109.470691,111.2021 C106.969289,108.830843 104.467887,106.459585 101.966771,104.088327 C97.1784308,99.5488427 91.4623725,95.9254217 84.5651922,97.2035707 C84.4423555,99.7772875 85.1576144,102.189665 85.8287781,104.624602 C86.4945014,107.040121 87.8259481,109.274597 89.2813769,111.294906" id="Fill-22" fill="#486406" sketch:type="MSShapeGroup"></path>
                <path d="M99.3582811,117.679368 C104.840978,123.074665 112.437097,125.622682 119.687325,128.215816 C121.455715,128.848323 123.234127,129.499962 124.829,130.490841 C128.974238,133.066843 131.79261,137.857617 136.521679,139.076656 C132.623261,136.018065 129.143746,132.429196 126.20941,128.440549 C129.199295,119.208521 124.406373,108.669503 116.507315,103.006927 C108.608543,97.3443498 98.3068677,95.9228517 88.6276795,96.892029 C91.0921444,104.370457 93.7395759,112.150717 99.3582811,117.679368" id="Fill-23" fill="#8BA728" sketch:type="MSShapeGroup"></path>
                <path d="M171.163919,169.622588 C167.370298,168.904986 163.430933,169.0075 159.643898,169.713395 C154.832078,170.610327 150.237585,172.361071 145.743881,174.255164 C141.295417,176.130125 136.80114,177.946833 132.342368,179.83493 C131.743074,180.088504 131.14378,180.342363 130.544486,180.595937 C132.505005,180.81353 134.430019,180.458299 136.325828,180.967445 C138.304386,181.498579 140.264333,182.104529 142.267516,182.541716 C146.955927,183.564578 151.799816,183.567719 156.599037,183.566291 C160.050204,183.565149 163.501371,183.564292 166.952538,183.56315 C173.559091,183.561151 180.204871,182.257873 184.319185,176.591298 C182.629536,174.642093 180.443959,173.385646 178.274989,172.082654 C176.123486,170.790227 173.61464,170.086046 171.163919,169.622588" id="Fill-24" fill="#486406" sketch:type="MSShapeGroup"></path>
                <path d="M159.450337,171.922171 C151.749135,171.781392 144.484303,175.156094 137.438803,178.260374 C135.720521,179.017383 133.981336,179.767538 132.141076,180.145615 C127.357317,181.128499 122.004329,179.594206 117.735396,181.96118 C122.673774,181.498008 127.675146,181.70675 132.55769,182.580266 C136.771075,191.324564 147.52716,195.666729 157.163685,194.340607 C166.800209,193.01477 175.247022,186.964122 181.590721,179.60934 C174.636847,175.884547 167.342237,172.066662 159.450337,171.922171" id="Fill-25" fill="#8BA728" sketch:type="MSShapeGroup"></path>
            </g>
        </g>
    </g>
</svg>