<?xml version="1.0" encoding="UTF-8" standalone="no"?>
<svg width="283px" height="285px" viewBox="0 0 283 285" version="1.1" xmlns="http://www.w3.org/2000/svg" xmlns:xlink="http://www.w3.org/1999/xlink" xmlns:sketch="http://www.bohemiancoding.com/sketch/ns">
    <!-- Generator: Sketch 3.3.1 (12005) - http://www.bohemiancoding.com/sketch -->
    <title>campagnarde</title>
    <desc>Created with Sketch.</desc>
    <defs></defs>
    <g id="Pizzas" stroke="none" stroke-width="1" fill="none" fill-rule="evenodd" sketch:type="MSPage">
        <g id="iPhone-6" sketch:type="MSArtboardGroup" transform="translate(-48.000000, -36.000000)">
            <g id="campagnarde" sketch:type="MSLayerGroup" transform="translate(47.998340, 36.128547)">
                <path d="M275.862442,141.926208 C275.862442,215.818308 215.786142,275.719655 141.677937,275.719655 C67.5703106,275.719655 7.49401009,215.818308 7.49401009,141.926208 C7.49401009,68.0341088 67.5703106,8.13247319 141.677937,8.13247319 C215.786142,8.13247319 275.862442,68.0341088 275.862442,141.926208" id="Fill-1" fill="#EBEBEB" sketch:type="MSShapeGroup"></path>
                <path id="Fill-2" fill="#F7CE74" sketch:type="MSShapeGroup" d="M225.87313,255.661594 C225.869366,255.663904 225.865602,255.666502 225.862127,255.668812 C225.857784,255.672854 225.85344,255.676896 225.848807,255.680938 L225.87313,255.661594"></path>
                <path d="M282.618663,142.499881 C282.506894,139.289968 282.299572,136.083808 282.018123,132.884577 C281.388627,125.730842 280.389947,118.61435 279.230273,111.528751 C277.465137,100.743004 274.00986,90.3816647 268.312838,80.9649952 C262.742061,71.7573541 256.824107,62.7581639 251.058749,53.6674517 C250.93366,53.4581346 250.808572,53.2488175 250.683194,53.0397892 C249.976676,52.2357229 249.237149,51.4576409 248.568853,50.6232598 C246.124128,47.569829 243.30935,44.7300461 241.079765,41.5244635 C240.555958,40.7709221 240.07819,39.9838899 239.506605,39.2655715 C238.185649,37.6054707 236.444835,36.8588583 234.810579,35.6378903 C232.874315,34.1914372 231.034473,32.5977403 229.142801,31.0926785 C225.356272,28.0799563 221.532389,25.1108299 217.599344,22.2895245 C208.702144,15.9075194 198.911083,11.016718 188.204444,8.37499227 C177.735531,5.79187534 167.169037,3.60083093 156.645398,1.23742474 C156.408541,1.17794982 156.171684,1.11818619 155.934827,1.05871127 C154.864626,0.988265255 153.790372,0.959393936 152.725963,0.840444101 C145.047795,-0.0176115047 137.360361,-0.316140945 129.761242,1.32432741 C117.125868,4.05208965 104.544351,7.02612423 91.9072394,9.74551379 C82.0093317,11.8756397 73.385762,16.479749 65.5390722,22.68766 C59.9607674,27.1009299 54.5388232,31.7165877 48.86815,36.0071544 C37.6605786,44.4872383 28.3695813,54.6805462 20.7675666,66.4461862 C13.6302901,77.4920642 8.11945199,89.3024548 3.98284876,101.769379 C1.52914753,109.16419 0.0306929821,116.686612 0.325750989,124.524021 C0.646000406,133.033264 0.819444711,141.548283 1.1451957,150.057238 C1.29171126,153.885286 1.31979823,157.76357 1.98317202,161.517131 C3.52042714,170.217791 5.22243986,178.899397 7.21429858,187.507092 C9.0625373,195.494054 11.79595,203.243982 16.4279843,210.09428 C20.3972239,215.964397 24.6099805,221.688713 28.9999456,227.253948 C35.738503,235.796683 42.0786307,244.698866 50.274236,252.003021 C50.3975871,252.119372 50.5209381,252.235724 50.6439996,252.352075 L50.6344442,252.340526 C52.9659526,254.085798 55.2042239,255.975137 57.6480802,257.54718 C61.4401113,259.986229 65.2726802,262.362339 69.1072761,264.734118 C71.0675732,265.946424 73.0492974,267.130437 74.9878777,268.376812 C75.7007657,268.835 76.1217807,269.49009 76.8563854,269.94106 C77.7473506,270.487883 78.7208393,270.887173 79.6911429,271.270007 C81.9030645,272.142209 84.1841901,272.818087 86.4016133,273.665171 C88.4438548,274.445275 90.5185267,275.295246 92.6334469,275.913381 C93.1355378,276.05947 93.6376286,276.205559 94.1397195,276.351648 C95.2895481,276.695505 96.4390871,277.03994 97.5886262,277.384086 C100.756953,278.151486 103.903852,279.025132 107.098239,279.663477 C112.947568,280.832188 118.825274,281.862316 124.691108,282.950188 C133.490149,284.198295 142.34826,283.824411 151.189576,283.909582 C153.633143,283.930369 156.139254,283.578716 158.578477,283.415593 C161.035653,283.251604 163.463294,282.892156 165.898464,282.528378 C170.905184,281.780322 175.891925,280.899747 180.851448,279.887518 C181.758918,279.702453 182.672179,279.510747 183.527528,279.15563 C184.10085,278.917731 184.641741,278.608807 185.180606,278.30075 C186.273102,277.676553 187.361545,277.043982 188.458674,276.427579 C189.305627,275.952069 190.190222,275.851885 191.089874,275.4985 C193.498404,274.552965 195.899696,273.585487 198.277823,272.565752 C200.685195,271.533602 202.952132,270.177805 205.29725,268.997545 C205.680043,268.804974 206.140728,268.766575 206.565507,268.657152 C207.682037,268.030934 208.798566,267.405003 209.914806,266.779073 C209.932759,266.670517 209.954186,266.466397 209.968085,266.466974 C212.504889,266.562827 213.2088,263.726509 215.316481,263.146772 C215.531622,262.897902 215.705356,262.588401 215.968563,262.409399 C217.795953,261.167932 219.642165,259.953316 221.482586,258.730327 C221.803125,258.50744 222.123953,258.284265 222.444782,258.061378 C222.910968,257.719253 223.376574,257.377417 223.84276,257.035292 L223.832336,257.045685 C224.50903,256.58692 225.185433,256.127866 225.862127,255.668812 C226.797684,254.806137 227.732951,253.943462 228.668508,253.080787 C233.031255,248.796572 237.482027,244.59695 241.722291,240.195806 C244.17107,237.654553 246.267458,234.777526 248.554665,232.078635 C248.931378,231.634305 249.475744,231.330579 249.942509,230.961892 C250.526544,230.132996 251.110579,229.304101 251.694615,228.475205 C253.361881,226.260486 255.023355,224.041437 256.69815,221.832203 C257.72926,220.471787 258.78035,219.126383 259.822464,217.774051 C259.927862,217.537883 260.03355,217.301427 260.138949,217.06526 C262.192773,213.801646 264.246307,210.538321 266.299841,207.274707 C267.007228,206.150746 267.367725,204.857023 267.81509,203.618732 C268.265061,202.373223 268.928724,201.504774 269.594414,200.379081 C270.904078,198.164073 271.545446,195.630904 272.11732,193.146527 C272.865244,189.89706 273.531803,186.627383 274.409448,183.410541 C275.150134,180.696348 276.039651,178.025173 276.928879,175.355443 C278.69749,170.044852 280.356937,164.819432 281.182463,159.262569 C281.446249,157.487272 281.662837,155.705623 281.855392,153.921375 C282.22197,150.521777 282.748384,147.036432 282.653699,143.616335 C282.643275,143.244184 282.631403,142.872033 282.618663,142.499881 L282.618663,142.499881 Z M268.695342,151.991328 C267.739805,157.963071 266.60098,163.912873 265.3084,169.821966 C263.53255,177.942601 261.230577,185.909065 257.979437,193.599229 C255.338682,199.846116 251.945081,205.623556 247.865231,211.012677 C245.262698,214.450385 242.556214,217.809851 239.896638,221.204541 C237.913466,223.768314 236.032797,226.420434 233.920482,228.873918 C231.248166,231.977874 228.573244,235.122249 225.560988,237.882059 C221.632286,241.481446 217.381598,244.733223 213.238914,248.09702 C212.83064,248.428751 212.209831,248.500064 211.68805,248.692635 C210.044238,250.024758 208.509299,251.526355 206.736924,252.657534 C200.072493,256.911145 192.919581,260.230769 185.645344,263.296903 C178.811523,266.177684 171.801361,268.475552 164.43244,269.53051 C162.091665,269.865706 159.731491,270.177227 157.372475,270.252293 C151.101261,270.452371 144.819624,270.754654 138.553912,270.585468 C126.788945,270.267883 115.285157,268.155946 103.922094,265.108579 C95.4844196,262.845933 87.2459599,260.110953 79.6940385,255.695085 C74.5454355,252.684384 69.5424794,249.408355 64.6052527,246.059571 C57.4911406,241.234307 51.9354213,234.831515 46.7265906,228.079957 C41.9196642,221.849815 36.8171007,215.842848 32.1008055,209.54688 C27.7036015,203.676763 24.1104957,197.349902 21.9486673,190.235432 C19.1153576,180.911151 16.9958045,171.438759 15.4119308,161.843088 C14.9466136,159.025536 14.7723006,156.145044 14.6750097,153.286206 C14.4676873,147.203308 14.4448123,141.114058 14.2568902,135.030294 C14.1335391,131.0397 13.7409006,127.056324 13.6702489,123.066019 C13.5570323,116.681704 14.9544316,110.537887 17.2245541,104.608007 C19.3354205,99.0941627 21.3081685,93.4922606 23.9240213,88.216027 C26.7683342,82.4792959 30.2505399,77.0540863 33.5164469,71.5292707 C36.4180919,66.620569 40.0528939,62.239635 44.0852568,58.2525058 C48.2464723,54.1386316 52.6126938,50.2080902 57.1092157,46.4597268 C62.9840262,41.5625737 69.0215674,36.8539502 75.0871956,32.1912322 C81.9942748,26.8815079 89.7610471,23.5200202 98.3933035,21.9702078 C105.483382,20.6972713 112.510627,19.0596901 119.538741,17.4651271 C126.339264,15.9222438 133.001957,13.6728793 140.065687,13.5351631 C146.575784,13.4081293 153.028549,14.0040334 159.387787,15.408623 C167.632328,17.2295371 175.916827,18.9084044 184.080292,21.042861 C192.132566,23.1481576 199.716339,26.4900128 206.64832,31.1752504 C206.965963,31.4018903 207.283317,31.6285302 207.600961,31.8548813 C209.907857,33.3469511 212.337525,34.6822496 214.497905,36.3614055 C219.901608,40.561605 225.199043,44.8974997 230.508639,49.2169378 C234.280691,54.9245089 239.250058,59.8352316 242.948273,65.6213326 C247.486491,72.7216562 252.154141,79.7500901 256.412937,87.0149802 C260.613532,94.1805529 263.606098,101.890639 265.185049,110.090959 C265.249041,110.474948 265.313033,110.859225 265.376735,111.243214 C265.950057,113.924782 266.721146,116.581809 267.0579,119.292538 C267.620798,123.822736 267.94568,128.406058 268.469777,132.914892 C268.839541,136.097089 269.423286,139.268315 269.453979,142.480249 C269.483514,145.577564 269.185271,148.930679 268.695342,151.991328 L268.695342,151.991328 Z" id="Fill-3" fill="#F7CE74" sketch:type="MSShapeGroup"></path>
                <path d="M239.32071,91.1851535 C245.139636,95.0002096 254.507655,95.6714678 255.903028,102.518012 C257.072546,108.257342 251.11,113.219167 250.412169,119.070228 C249.377294,127.745771 259.997356,135.72436 256.198086,143.646073 C254.526187,147.131707 250.35281,149.314668 249.696965,153.106338 C248.858409,157.951523 254.338554,162.03335 253.671127,166.901632 C253.317868,169.478686 251.327168,171.4991 249.604886,173.475342 C243.713281,180.236139 239.905904,188.772522 238.842073,197.604836 C238.234873,202.645191 238.324057,208.225728 234.995026,212.112385 C232.739671,214.746027 229.348386,216.03542 226.228126,217.535285 C217.115206,221.91593 209.258382,228.945808 203.892322,237.521456 C202.489421,239.763314 201.162963,242.20294 198.931641,243.625141 C195.093571,246.071119 189.826539,244.742173 185.881333,247.007705 C183.444426,248.406809 181.566073,251.133128 178.781409,251.312707 C175.770311,251.507011 173.599507,248.623055 170.833953,247.480329 C168.817482,246.647391 166.533751,246.772404 164.338044,246.910697 C152.012785,247.688491 139.687236,248.466284 127.361687,249.244077 C124.857314,249.402004 122.329486,249.559064 119.859859,249.17623 C117.703533,248.8419 115.638127,248.101928 113.637292,247.253977 C109.17957,245.364927 104.986214,242.930497 100.806177,240.502419 C86.9219462,232.437505 73.0377152,224.37288 59.1537737,216.307965 C56.0138237,214.484164 52.8666348,212.65661 49.5477389,211.172046 C47.4305023,210.225067 45.1994699,209.390108 43.4844272,207.838275 C41.071843,205.655603 40.020174,202.380441 39.06319,199.258874 C34.327784,183.808387 29.5923781,168.35819 24.8569722,152.907992 C24.2975491,151.083036 23.7334932,149.153277 24.1715921,147.276352 C25.0475003,143.521637 29.3442282,141.714581 31.6795009,138.620153 C36.0242952,132.863212 32.5950783,124.77549 33.5231067,117.676899 C34.7395333,108.373405 43.2637852,101.76014 47.3097572,93.2390591 C49.6105727,88.3930082 50.4161187,83.0021555 52.3410899,78.0013543 C55.012248,71.0615553 59.7375194,65.1048247 64.3904018,59.2719521 C68.0680581,54.6620686 72.1264811,49.7894561 77.7745689,48.1715073 C82.4804401,46.8235054 87.4692079,47.9939487 92.3317291,47.6067843 C101.583347,46.8699883 109.437275,40.6897937 117.844836,36.6310636 C128.063862,31.6978213 139.688394,29.813679 150.825893,31.2846727 C155.964651,31.9634375 161.706845,33.1991299 165.986489,30.1705285 C168.519818,28.378197 170.09211,25.3140839 172.90515,24.0157407 C176.801132,22.2182124 181.193703,24.5123274 184.771173,26.7524531 C190.809294,30.5331523 196.907062,34.4166334 201.64131,39.72809 C206.181266,44.8221456 206.119011,50.0495866 208.984172,55.535426 C212.53008,62.3193199 219.942435,66.0864496 224.797717,71.6975905 C230.004232,77.7149508 232.493838,86.7089442 239.32071,91.1851535" id="Fill-4" fill="#EFC29A" sketch:type="MSShapeGroup"></path>
                <path d="M74.1336863,41.1378766 C73.4202192,40.1764616 74.2987334,38.8697457 75.1323664,38.0099578 C77.0556002,36.0259208 78.9791236,34.0421724 80.9023575,32.0584241 C85.2022705,35.7530868 88.9178587,40.0702152 92.4811402,44.4759785 C93.7800904,46.0823787 95.1195784,47.8513244 95.2142634,49.9124479 C95.2452459,50.5883255 95.0196815,51.4097145 94.3635466,51.5820763 C94.0589332,51.6620498 93.7381047,51.5751471 93.4360973,51.4856461 C87.6163025,49.7579863 82.1538204,46.8428492 77.4841438,42.9726489 C76.487201,42.146063 75.4265557,41.2337293 74.1336863,41.1378766" id="Fill-5" fill="#D384B9" sketch:type="MSShapeGroup"></path>
                <path d="M81.7982451,34.5895727 C79.132299,36.7546329 76.3942534,38.7932367 73.9252056,41.31659 C77.1957456,47.9699855 82.2870164,53.7223072 88.501187,57.7853679 C90.8436986,55.7230896 93.0698084,53.5294467 95.1656179,51.2185864 C94.9388952,51.468612 82.9280943,35.9113016 81.7982451,34.5895727" id="Fill-6" fill="#F9A5D5" sketch:type="MSShapeGroup"></path>
                <path d="M62.0319646,74.3759828 C62.3678501,74.1958257 62.7074998,74.0127816 62.9875009,73.7543833 C63.5191265,73.2641483 63.7814646,72.5553574 64.0035544,71.86822 C65.6980386,66.6194141 66.061432,60.9490871 65.05088,55.5279195 C64.8861224,54.6441684 64.6669282,53.7289476 64.083472,53.0438312 C63.1328582,51.927666 61.4928105,51.723257 60.025049,51.7781125 C58.8737726,51.8211308 57.7271291,51.9712616 56.5845394,51.9865634 C56.3534734,51.9897393 56.076947,52.019188 55.9712589,52.2241744 C55.9214552,52.3200272 55.9237716,52.4334915 55.9223238,52.5414702 C55.9162432,53.051049 55.7732023,53.5242499 55.7824681,54.0245899 C55.7954981,54.7322259 55.8655708,55.4467911 55.8988698,56.1547158 C55.9683633,57.6199352 56.0311971,59.0854434 56.0804217,60.551529 C56.1780022,63.4392383 56.2237521,66.3295461 56.1687364,69.2189877 C56.1438345,70.5205068 56.1001115,71.8393487 56.3995128,73.1062221 C56.6992038,74.3733843 57.3921123,75.6070558 58.5219615,76.2598363 C59.6917695,75.6318851 60.8621566,75.0039339 62.0319646,74.3759828" id="Fill-7" fill="#D384B9" sketch:type="MSShapeGroup"></path>
                <path d="M58.2720743,56.7997011 C58.2969762,55.8244279 58.311454,54.8471338 58.3126122,53.8672412 C58.3169556,53.6264544 63.7626434,53.6634097 64.2470713,53.6293415 C64.3078782,53.6250108 64.3738971,53.6221237 64.4245694,53.6561918 C64.4882719,53.6994988 64.5036183,53.7849579 64.5140424,53.8608895 C65.0025241,57.4986757 66.1242657,60.9430241 66.8452612,64.518737 C67.4521715,67.5308817 68.5901283,70.1255471 69.4561916,73.0764847 C69.5152611,73.2777178 69.5711455,73.4994495 69.4863055,73.6914438 C69.3962534,73.8952753 69.1753219,74.0035427 68.9703159,74.0924664 C67.1377132,74.8904697 65.219981,75.4924367 63.2605526,75.8902834 C61.541456,76.2399151 59.7598153,76.2687864 58.0114735,76.1807289 C57.9596429,76.1781305 57.9043376,76.1743772 57.8620624,76.1437736 C57.8267365,76.1183669 57.8058885,76.0776583 57.7867777,76.0383933 C56.9959991,74.4158252 57.4584207,72.7046221 57.5484728,70.9475136 C57.6298381,69.3621895 57.7251022,67.7774428 57.8197872,66.1929848 C58.0065511,63.0636225 58.1924463,59.9336828 58.2720743,56.7997011" id="Fill-8" fill="#F9A5D5" sketch:type="MSShapeGroup"></path>
                <path d="M174.059322,66.763482 C175.253453,66.8775237 175.640301,68.4025068 175.723982,69.5957584 C175.916827,72.3480613 176.109961,75.1006529 176.303095,77.8532444 C170.67267,78.5701193 164.968698,78.4375999 159.300631,78.1327188 C157.234067,78.0218529 155.019539,77.8318797 153.419161,76.5237202 C152.894195,76.0946924 152.432352,75.3781062 152.743046,74.776428 C152.886956,74.4972423 153.166667,74.317374 153.435376,74.1533849 C158.615251,70.9942851 164.441995,68.8938967 170.450581,68.0202506 C171.733895,67.8337418 173.123186,67.6579155 174.059322,66.763482" id="Fill-9" fill="#D384B9" sketch:type="MSShapeGroup"></path>
                <path d="M173.816674,76.8245593 C173.985196,73.4004209 174.29589,70.0074635 174.065403,66.4894932 C166.917123,64.4647476 159.22303,64.3922806 152.037687,66.2821971 C152.009021,69.3977012 152.156115,72.5149375 152.477813,75.6142736 C152.442776,75.2785002 172.075571,76.7783652 173.816674,76.8245593" id="Fill-10" fill="#F9A5D5" sketch:type="MSShapeGroup"></path>
                <path d="M152.690926,34.4541662 C152.600874,34.8237191 152.509953,35.1978913 152.515455,35.5781266 C152.525589,36.3001983 152.878559,36.9688581 153.242531,37.5927673 C156.023431,42.3591334 160.008596,46.4204618 164.726919,49.2963339 C165.49598,49.7652042 166.324691,50.2150193 167.225791,50.2404261 C168.693842,50.2820008 169.942988,49.2027909 170.883757,48.078253 C171.621257,47.1959455 172.276813,46.2455016 173.029081,45.3883122 C173.181387,45.2147955 173.344118,44.9901767 173.262174,44.7745079 C173.223663,44.6734583 173.137664,44.5995477 173.058036,44.5262146 C172.682192,44.1809136 172.425066,43.7585262 172.045747,43.430548 C171.509488,42.9671633 170.929796,42.5413114 170.37935,42.0926511 C169.240524,41.1641495 168.105463,40.2307397 166.979378,39.2869363 C164.761086,37.427912 162.574935,35.5290454 160.457409,33.5562681 C159.50332,32.6673202 158.549232,31.7529655 157.404326,31.1276128 C156.25913,30.50226 154.875629,30.1913159 153.633432,30.5923385 C153.319264,31.8797106 153.005095,33.166794 152.690926,34.4541662" id="Fill-11" fill="#D384B9" sketch:type="MSShapeGroup"></path>
                <path d="M168.311627,43.4207318 C169.022199,44.0911238 169.741167,44.7554528 170.47085,45.4116979 C170.647479,45.5759757 166.97822,49.588223 166.680266,49.9701905 C166.642624,50.0181169 166.600638,50.0692191 166.541279,50.0836548 C166.466574,50.1021324 166.392447,50.0565158 166.328745,50.0132088 C163.28956,47.9425578 159.970954,46.4709866 156.822317,44.6142721 C154.17056,43.050024 151.474789,42.1584777 148.695047,40.8272212 C148.505388,40.7362765 148.302988,40.6294526 148.2167,40.4383245 C148.124911,40.2350704 148.191798,39.998903 148.26245,39.787565 C148.892814,37.8953387 149.726447,36.07096 150.740184,34.3522504 C151.629412,32.8440127 152.79922,31.5040948 154.033599,30.26667 C154.070373,30.2300035 154.110332,30.1916046 154.161004,30.1806335 C154.203859,30.1716834 154.247871,30.1832319 154.290146,30.1953579 C156.028933,30.6939656 156.995762,32.1811272 158.245777,33.4231714 C159.373599,34.5436673 160.491287,35.6739794 161.609843,36.8037141 C163.818001,39.0348897 166.027896,41.2657765 168.311627,43.4207318" id="Fill-12" fill="#F9A5D5" sketch:type="MSShapeGroup"></path>
                <path d="M53.4286638,126.503727 C54.6227946,126.617769 55.009642,128.142752 55.0933238,129.335715 C55.2864579,132.088306 55.4795921,134.840609 55.6727262,137.593201 C50.0420118,138.310076 44.3380395,138.177845 38.6702619,137.872964 C36.6036976,137.761809 34.3888804,137.571836 32.788502,136.263676 C32.2638258,135.834649 31.8019833,135.118062 32.1123878,134.516384 C32.2565869,134.237199 32.5360088,134.05733 32.8047172,133.89363 C37.9848818,130.734241 43.8113364,128.634142 49.8202115,127.760495 C51.1032361,127.573987 52.4925279,127.39816 53.4286638,126.503727" id="Fill-13" fill="#D384B9" sketch:type="MSShapeGroup"></path>
                <path d="M53.1863051,136.564516 C53.3545374,133.140377 53.6652314,129.74742 53.4347445,126.229738 C46.2867544,124.204993 38.5923712,124.132526 31.4070283,126.022442 C31.3786517,129.137946 31.5254569,132.255182 31.8471541,135.35423 C31.8124073,135.018745 51.4449127,136.518321 53.1863051,136.564516" id="Fill-14" fill="#F9A5D5" sketch:type="MSShapeGroup"></path>
                <path d="M36.736604,95.304802 C36.6462624,95.6743549 36.5556312,96.0485272 36.5608433,96.4287625 C36.5712673,97.1508342 36.923947,97.8194939 37.288209,98.4434031 C40.0688195,103.209769 44.0539847,107.271098 48.7725964,110.14697 C49.5413687,110.61584 50.3703688,111.065655 51.2714684,111.091062 C52.7395195,111.132637 53.988666,110.053427 54.9291453,108.928889 C55.6672246,108.046581 56.3222013,107.096137 57.0747585,106.238948 C57.2270651,106.065431 57.3897959,105.840813 57.3078514,105.625144 C57.2693404,105.524094 57.1833421,105.450184 57.1037141,105.37685 C56.7278698,105.031549 56.4707437,104.609162 56.0911352,104.281184 C55.5551663,103.817799 54.9754743,103.391659 54.4250275,102.943287 C53.2859125,102.014785 52.1511408,101.081376 51.0250559,100.137572 C48.8064745,98.2785479 46.6206129,96.3796812 44.5030867,94.406904 C43.5489983,93.5179561 42.5949098,92.6036014 41.4497141,91.9782486 C40.304808,91.3528959 38.9213073,91.0419517 37.6791102,91.4429744 C37.3649415,92.7303465 37.0507727,94.0174299 36.736604,95.304802" id="Fill-15" fill="#D384B9" sketch:type="MSShapeGroup"></path>
                <path d="M52.357305,104.271368 C53.0678765,104.94176 53.7868451,105.606089 54.5165274,106.262334 C54.6931568,106.426612 51.0238976,110.438859 50.7256545,110.820826 C50.6883017,110.868753 50.646316,110.919855 50.586957,110.934291 C50.5119619,110.952768 50.438125,110.907152 50.3744225,110.863845 C47.3352382,108.793194 44.0166319,107.321622 40.8679952,105.464908 C38.2162374,103.90066 35.520467,103.009114 32.7407252,101.677857 C32.5510658,101.586912 32.3486658,101.480088 32.2620884,101.28896 C32.170299,101.085706 32.2374761,100.849539 32.3081279,100.638201 C32.9384923,98.7459746 33.7721252,96.9215959 34.7858623,95.2028863 C35.6748006,93.6946486 36.8446086,92.3547306 38.0792772,91.1173059 C38.1160509,91.0806393 38.1557201,91.0422405 38.206682,91.0312694 C38.2495364,91.0220305 38.2938385,91.0338678 38.3358242,91.0459937 C40.074321,91.5446014 41.0414395,93.0317631 42.2914547,94.2738072 C43.4189874,95.3943031 44.5369648,96.5246153 45.6555213,97.65435 C47.8636787,99.8855255 50.0732839,102.116412 52.357305,104.271368" id="Fill-16" fill="#F9A5D5" sketch:type="MSShapeGroup"></path>
                <path d="M91.5403714,122.486572 C91.9234545,123.62006 90.6850216,124.594755 89.6269824,125.157746 C87.1854426,126.456955 84.7441923,127.756165 82.302942,129.055374 C79.3485977,124.222893 77.141309,118.976685 75.107175,113.692945 C74.3653314,111.766651 73.6353596,109.673191 74.1797257,107.682514 C74.3583821,107.029733 74.8260157,106.316901 75.5035778,106.353856 C75.818036,106.371179 76.0968789,106.551913 76.3563215,106.72976 C81.3633313,110.155342 85.6644026,114.602103 88.9169901,119.714925 C89.6113464,120.80655 90.3392913,121.999512 91.5403714,122.486572" id="Fill-17" fill="#D384B9" sketch:type="MSShapeGroup"></path>
                <path d="M82.2299737,126.372362 C85.4336261,125.128009 88.6671028,124.02599 91.7937332,122.380325 C90.7299029,115.047299 87.6559718,108.013957 82.9926654,102.24489 C80.1283731,103.490687 77.3344431,104.89672 74.6282487,106.454328 C74.9212798,106.28572 81.5613879,124.768561 82.2299737,126.372362" id="Fill-18" fill="#F9A5D5" sketch:type="MSShapeGroup"></path>
                <path d="M97.1577662,73.5912603 C96.7827906,73.659974 96.4028926,73.7301313 96.0571622,73.8903672 C95.4004482,74.1943822 94.9322354,74.7885539 94.509483,75.3746417 C91.2803497,79.8511397 89.188594,85.1363234 88.4812076,90.6051287 C88.3659642,91.4963863 88.2927064,92.4344155 88.636989,93.2650433 C89.1978598,94.6182421 90.6960248,95.314907 92.1096393,95.7121763 C93.2186404,96.0234092 94.3563077,96.2318601 95.448225,96.5670561 C95.6691566,96.6349037 95.9413396,96.6914915 96.1052285,96.5286572 C96.181961,96.452437 96.2146809,96.3441695 96.2491381,96.2416763 C96.4118688,95.7586592 96.6938968,95.3518623 96.8392541,94.8728871 C97.0445496,94.1955659 97.1980145,93.4939929 97.3841993,92.8100313 C97.7690198,91.3941818 98.1607897,89.9803533 98.5653,88.5699894 C99.3618698,85.7919911 100.207954,83.0269848 101.15017,80.2943145 C101.57466,79.0632414 102.022314,77.821486 102.127423,76.5237202 C102.232532,75.2262431 101.952821,73.8401311 101.07865,72.8729419 C99.7715921,73.1125738 98.4648239,73.3519171 97.1577662,73.5912603" id="Fill-19" fill="#D384B9" sketch:type="MSShapeGroup"></path>
                <path d="M95.3242948,91.4698247 C95.0002812,92.3902424 94.6855333,93.3158568 94.3826573,94.2481117 C94.3044771,94.4759065 89.1329992,92.7736535 88.6616013,92.6578795 C88.6022422,92.6434438 88.5385398,92.626121 88.501187,92.5779059 C88.4536998,92.5172762 88.465282,92.4312396 88.4788912,92.3558855 C89.1341574,88.7440835 89.127208,85.1227539 89.5421424,81.4988259 C89.891637,78.44655 89.6078717,75.628998 89.6921326,72.5553574 C89.6979238,72.3457516 89.7129807,72.1176682 89.8528364,71.9608969 C90.0013789,71.7945981 90.2448959,71.7590864 90.4675648,71.7368555 C92.457107,71.5387982 94.4677869,71.5526565 96.4550127,71.7740995 C98.1987216,71.967826 99.9033403,72.4857775 101.539913,73.1044899 C101.588848,73.1229675 101.63981,73.1434661 101.670793,73.1853296 C101.696563,73.2205526 101.703802,73.2655918 101.709883,73.3086101 C101.962955,75.0948786 100.995837,76.5820403 100.369237,78.2268393 C99.8034433,79.7105364 99.2251991,81.1896141 98.6469549,82.6686918 C97.505813,85.5896031 96.3649607,88.5113806 95.3242948,91.4698247" id="Fill-20" fill="#F9A5D5" sketch:type="MSShapeGroup"></path>
                <path d="M107.920868,100.139016 C107.207401,99.1778895 108.085916,97.8711736 108.919549,97.011097 C110.842782,95.0273486 112.766306,93.0436003 114.68954,91.059852 C118.989453,94.7545147 122.70533,99.071643 126.268322,103.477406 C127.567273,105.083807 128.906761,106.852464 129.001446,108.913876 C129.032428,109.589753 128.806864,110.411142 128.150729,110.583504 C127.846405,110.663478 127.524997,110.576575 127.22328,110.486785 C121.403485,108.759414 115.941003,105.844277 111.271326,101.973788 C110.274383,101.147491 109.213738,100.235157 107.920868,100.139016" id="Fill-21" fill="#D384B9" sketch:type="MSShapeGroup"></path>
                <path d="M115.585427,93.5910005 C112.919481,95.755772 110.181725,97.7946646 107.712677,100.318018 C110.982928,106.971125 116.074199,112.723735 122.288369,116.786507 C124.630881,114.724229 126.856991,112.530875 128.9528,110.219726 C128.726077,110.47004 116.715276,94.9127295 115.585427,93.5910005" id="Fill-22" fill="#F9A5D5" sketch:type="MSShapeGroup"></path>
                <path d="M104.365695,137.952649 C104.721559,138.08921 105.082347,138.227215 105.461087,138.270811 C106.180345,138.353671 106.890916,138.090942 107.558344,137.811179 C112.656853,135.675856 117.209549,132.258358 120.677856,127.963461 C121.24307,127.263331 121.796992,126.501706 121.938585,125.614202 C122.169072,124.167749 121.25639,122.793762 120.259158,121.718883 C119.476776,120.875552 118.615925,120.105265 117.860183,119.250963 C117.707297,119.078024 117.504897,118.88805 117.279912,118.941462 C117.174513,118.966292 117.089673,119.041646 117.00657,119.111226 C116.6148,119.438338 116.161355,119.638127 115.786379,119.971014 C115.256491,120.441616 114.758165,120.959856 114.241017,121.446338 C113.171106,122.453081 112.096562,123.454916 111.012752,124.446645 C108.878142,126.400945 106.707917,128.317712 104.47312,130.157392 C103.466043,130.986288 102.433774,131.812008 101.664423,132.863501 C100.895071,133.915283 100.407458,135.243075 100.646342,136.522941 C101.886223,136.999318 103.126103,137.475983 104.365695,137.952649" id="Fill-23" fill="#D384B9" sketch:type="MSShapeGroup"></path>
                <path d="M115.295581,123.661923 C116.05393,123.045809 116.807355,122.420456 117.553832,121.783266 C117.740017,121.62996 121.257838,125.774726 121.599225,126.118872 C121.642079,126.162179 121.68754,126.210106 121.694489,126.270735 C121.702886,126.346956 121.64816,126.414515 121.596908,126.47168 C119.146103,129.210124 117.25501,132.301954 115.00284,135.176094 C113.105376,137.596665 111.871576,140.147158 110.189254,142.724211 C110.074589,142.900038 109.942262,143.086835 109.74102,143.147465 C109.527038,143.212137 109.300894,143.115418 109.099653,143.01841 C107.298901,142.151116 105.591676,141.091827 104.013015,139.868261 C102.627777,138.794825 101.445518,137.465589 100.374159,136.085252 C100.342308,136.044254 100.309298,136.000081 100.304955,135.948402 C100.301191,135.904806 100.318564,135.862654 100.335938,135.822523 C101.056064,134.167619 102.659628,133.403106 104.055869,132.327072 C105.31544,131.356418 106.583697,130.396447 107.851375,129.436187 C110.35488,127.540207 112.858095,125.642496 115.295581,123.661923" id="Fill-24" fill="#F9A5D5" sketch:type="MSShapeGroup"></path>
                <path d="M134.399646,173.439253 C134.782729,174.572452 133.544296,175.547148 132.485968,176.110428 C130.044717,177.409637 127.603467,178.708846 125.162217,180.008056 C122.207583,175.175286 120.000584,169.929367 117.96616,164.645627 C117.224606,162.719332 116.494345,160.625584 117.039001,158.634907 C117.217657,157.982126 117.685291,157.269582 118.362853,157.306537 C118.677311,157.323571 118.955864,157.504595 119.215596,157.682153 C124.222606,161.108024 128.523677,165.554496 131.775975,170.667318 C132.470332,171.758942 133.198566,172.951905 134.399646,173.439253" id="Fill-25" fill="#D384B9" sketch:type="MSShapeGroup"></path>
                <path d="M125.088959,177.324755 C128.292611,176.080401 131.526088,174.978383 134.653008,173.333007 C133.589178,165.999692 130.514957,158.966638 125.85194,153.197571 C122.987648,154.44308 120.193718,155.849113 117.487523,157.40701 C117.780555,157.238112 124.420663,175.720953 125.088959,177.324755" id="Fill-26" fill="#F9A5D5" sketch:type="MSShapeGroup"></path>
                <path d="M126.20433,36.0120625 C125.868155,35.8324829 125.527347,35.6514598 125.156426,35.56167 C124.452804,35.3913292 123.715593,35.5648458 123.018341,35.7605934 C117.695135,37.2546841 112.755592,40.0878267 108.784036,43.924825 C108.136588,44.5504665 107.492904,45.2381813 107.243017,46.1017225 C106.8359,47.5086218 107.571953,48.9845237 108.42933,50.1734446 C109.10168,51.1062769 109.860897,51.9761698 110.505739,52.9167974 C110.636039,53.1070593 110.813537,53.3204184 111.043155,53.2953003 C111.15116,53.2834631 111.244397,53.2187914 111.335318,53.1601826 C111.76473,52.8835953 112.239024,52.7406823 112.65251,52.4562998 C113.236545,52.054411 113.79481,51.6011313 114.368132,51.1819198 C115.554155,50.3140479 116.743943,49.4516616 117.941838,48.5999577 C120.301433,46.9225341 122.691432,45.2863964 125.136446,43.7348517 C126.237919,43.0358771 127.364293,42.3429654 128.257286,41.3933877 C129.150567,40.4440988 129.798594,39.1861754 129.719256,37.8866773 C128.547711,37.261902 127.375876,36.6368379 126.20433,36.0120625" id="Fill-27" fill="#D384B9" sketch:type="MSShapeGroup"></path>
                <path d="M113.594727,48.8537366 C112.766306,49.3722655 111.94136,49.9006106 111.121915,50.4413704 C110.918357,50.570714 107.938242,46.0257909 107.642026,45.6423798 C107.604673,45.5941647 107.565583,45.5410414 107.566162,45.480123 C107.56732,45.4033252 107.629864,45.3432729 107.688065,45.2924594 C110.457962,42.8753525 112.715923,40.0390341 115.305426,37.4628463 C117.486944,35.2934554 119.026226,32.9133039 121.013452,30.5623123 C121.148965,30.4017878 121.303298,30.2328906 121.510621,30.1973789 C121.730973,30.1595574 121.943507,30.2831267 122.13143,30.4040975 C123.811436,31.4856171 125.374751,32.7458502 126.790682,34.1539044 C128.033169,35.3890195 129.042273,36.8533728 129.935555,38.3543927 C129.961904,38.3991432 129.989123,38.4470696 129.987096,38.4987493 C129.985358,38.542345 129.963062,38.5821874 129.940767,38.6197201 C129.022004,40.1738632 127.336207,40.7359878 125.818062,41.6324423 C124.448171,42.4414166 123.07133,43.2385537 121.694778,44.0359796 C118.976423,45.61091 116.258067,47.1869953 113.594727,48.8537366" id="Fill-28" fill="#F9A5D5" sketch:type="MSShapeGroup"></path>
                <path d="M162.133941,173.427705 C160.941547,173.556471 160.253851,172.140621 159.930416,170.989233 C159.18394,168.332205 158.437463,165.675178 157.690987,163.01815 C163.060232,161.182801 168.673862,160.163932 174.286914,159.321755 C176.333209,159.014565 178.540787,158.754723 180.3731,159.713828 C180.97422,160.028237 181.571285,160.637133 181.389154,161.289047 C181.304604,161.59133 181.067167,161.823744 180.837259,162.038547 C176.403571,166.175518 171.122062,169.405352 165.414036,171.470518 C164.195293,171.911383 162.869704,172.363508 162.133941,173.427705" id="Fill-29" fill="#D384B9" sketch:type="MSShapeGroup"></path>
                <path d="M160.334637,163.525131 C160.863077,166.912603 161.245581,170.298342 162.183744,173.697363 C169.594652,174.241587 177.145125,172.763664 183.799711,169.466271 C183.196855,166.409087 182.421712,163.385682 181.479206,160.414824 C181.581419,160.736739 162.049101,163.219961 160.334637,163.525131" id="Fill-30" fill="#F9A5D5" sketch:type="MSShapeGroup"></path>
                <path d="M172.347754,206.806414 C172.361074,206.426179 172.374394,206.041324 172.292159,205.670039 C172.135799,204.96529 171.654846,204.381223 171.171866,203.843351 C167.483496,199.734962 162.757935,196.559406 157.554316,194.692586 C156.706205,194.388282 155.803368,194.114582 154.915588,194.271065 C153.469543,194.52571 152.464493,195.834158 151.771005,197.125283 C151.226929,198.137801 150.777827,199.200554 150.21435,200.191706 C150.100265,200.392073 149.98618,200.644986 150.110399,200.839579 C150.168311,200.930812 150.267339,200.985956 150.360576,201.041678 C150.798675,201.304118 151.136008,201.666164 151.573817,201.910993 C152.192889,202.256872 152.846997,202.557422 153.476782,202.885978 C154.780076,203.565897 156.080763,204.251591 157.374791,204.949411 C159.924046,206.323686 162.449268,207.743288 164.922948,209.249216 C166.037161,209.927692 167.156876,210.631286 168.404864,211.013254 C169.653142,211.394933 171.0711,211.421206 172.206451,210.77853 C172.253359,209.454492 172.300557,208.130453 172.347754,206.806414" id="Fill-31" fill="#D384B9" sketch:type="MSShapeGroup"></path>
                <path d="M155.233232,201.169 C154.401336,200.65538 153.562781,200.149554 152.714959,199.653833 C152.508795,199.528243 155.289985,194.86004 155.504836,194.426104 C155.531764,194.371248 155.562747,194.312928 155.617763,194.286655 C155.687256,194.253742 155.769201,194.283479 155.840432,194.313217 C159.23606,195.729355 162.784284,196.502529 166.243905,197.687119 C169.158001,198.685489 171.978859,199.016066 174.970557,199.760369 C175.174983,199.811182 175.395046,199.874988 175.518397,200.044751 C175.649277,200.225486 175.631324,200.470026 175.604975,200.691469 C175.370724,202.671464 174.923938,204.626341 174.279096,206.51337 C173.713592,208.169718 172.839132,209.717509 171.88041,211.177821 C171.851744,211.221416 171.820762,211.266744 171.772985,211.28782 C171.733026,211.305432 171.687276,211.302833 171.643553,211.299369 C169.839616,211.161075 168.591628,209.89911 167.116049,208.93423 C165.784379,208.06376 164.460816,207.18203 163.136675,206.300589 C160.52198,204.559937 157.906417,202.819862 155.233232,201.169" id="Fill-32" fill="#F9A5D5" sketch:type="MSShapeGroup"></path>
                <path d="M92.0366711,194.363742 C91.4320772,193.331015 92.4475517,192.127081 93.3697889,191.362568 C95.4977391,189.59853 97.6256894,187.834782 99.7536396,186.070744 C103.625878,190.209159 106.84951,194.903058 109.911858,199.668269 C111.028388,201.405745 112.167503,203.309231 112.037203,205.368622 C111.994348,206.043923 111.680759,206.835863 111.009567,206.936046 C110.698294,206.982529 110.388468,206.861558 110.098043,206.739721 C104.500917,204.392483 99.3879299,200.903384 95.1673553,196.550455 C94.2659661,195.621088 93.3112985,194.599332 92.0366711,194.363742" id="Fill-33" fill="#D384B9" sketch:type="MSShapeGroup"></path>
                <path d="M100.368657,188.683887 C97.4826485,190.547531 94.5390178,192.277789 91.8099484,194.519069 C94.3366178,201.486874 98.7714642,207.756569 104.506709,212.46808 C107.059728,210.671418 109.511402,208.731842 111.846675,206.66148 C111.593602,206.88581 101.347937,190.120235 100.368657,188.683887" id="Fill-34" fill="#F9A5D5" sketch:type="MSShapeGroup"></path>
                <path d="M100.71323,136.792888 C100.337096,136.730526 99.9560396,136.668164 99.5761415,136.701654 C98.8548565,136.765171 98.2123307,137.165616 97.6149758,137.573857 C93.0538828,140.691959 89.2867536,144.955387 86.7597946,149.860047 C86.3480454,150.659494 85.9594606,151.516972 86.0005776,152.414581 C86.0677547,153.877491 87.2398792,155.03985 88.4342995,155.891843 C89.3713041,156.559925 90.3705634,157.141105 91.2835348,157.825932 C91.4682718,157.964515 91.705129,158.109737 91.9144783,158.012152 C92.0126379,157.966536 92.0803941,157.875591 92.1478608,157.790998 C92.4652146,157.391708 92.8688563,157.104438 93.1685472,156.703127 C93.5924578,156.135517 93.975541,155.527487 94.383526,154.947173 C95.227583,153.745838 96.0771416,152.548255 96.9377033,151.358468 C98.6330562,149.014983 100.370105,146.700947 102.186493,144.448984 C103.004779,143.434735 103.848836,142.418176 104.389438,141.233297 C104.93004,140.048418 105.13881,138.649602 104.645696,137.444225 C103.334874,137.227112 102.024052,137.01 100.71323,136.792888" id="Fill-35" fill="#D384B9" sketch:type="MSShapeGroup"></path>
                <path d="M92.9021553,152.989409 C92.2842418,153.745549 91.6729882,154.509773 91.0707108,155.284101 C90.9192728,155.471765 86.6347062,152.120382 86.230775,151.852168 C86.1798131,151.818388 86.125666,151.780278 86.1068448,151.722536 C86.0828117,151.649491 86.12306,151.572405 86.161571,151.506001 C88.0074933,148.330444 89.2337648,144.921896 90.8575973,141.653374 C92.2257514,138.900783 92.9177913,136.154254 94.0432972,133.291663 C94.1203192,133.096493 94.2121086,132.886887 94.3968456,132.786992 C94.5934544,132.680746 94.8346549,132.729827 95.0512431,132.784394 C96.9904026,133.271164 98.8768627,133.964942 100.670665,134.845517 C102.244983,135.618114 103.672207,136.682022 105.000981,137.818108 C105.040361,137.851888 105.081768,137.888554 105.096245,137.938213 C105.108696,137.980076 105.100299,138.025116 105.091323,138.067845 C104.72127,139.833615 103.305339,140.90503 102.1558,142.240039 C101.118609,143.444262 100.070993,144.639824 99.0239574,145.835385 C96.9559454,148.196481 94.8882229,150.558733 92.9021553,152.989409" id="Fill-36" fill="#F9A5D5" sketch:type="MSShapeGroup"></path>
                <path d="M47.4197887,164.336992 C46.8151948,163.304265 47.8306693,162.100331 48.7529065,161.335819 C50.8811463,159.571781 53.0090966,157.807743 55.1370468,156.043995 C59.0089954,160.182409 62.2329168,164.87602 65.2952656,169.64152 C66.4117953,171.378996 67.5506207,173.282193 67.4206099,175.341584 C67.3777555,176.016884 67.0641659,176.809113 66.3929741,176.909297 C66.0814114,176.95578 65.7718755,176.834809 65.4814504,176.712972 C59.884035,174.365734 54.771337,170.876346 50.5504729,166.523706 C49.6493732,165.594338 48.6947057,164.572294 47.4197887,164.336992" id="Fill-37" fill="#D384B9" sketch:type="MSShapeGroup"></path>
                <path d="M55.7520647,158.657138 C52.8660557,160.520781 49.922425,162.25104 47.193066,164.492031 C49.720025,171.460124 54.1548714,177.72982 59.8901157,182.44133 C62.4431348,180.644668 64.8948091,178.705093 67.2300817,176.634731 C66.9770094,176.858772 56.731055,160.093486 55.7520647,158.657138" id="Fill-38" fill="#F9A5D5" sketch:type="MSShapeGroup"></path>
                <path d="M169.338684,101.954733 C168.963708,102.023447 168.58381,102.093604 168.23808,102.253551 C167.581366,102.557566 167.113153,103.151738 166.690401,103.737826 C163.461557,108.214612 161.369512,113.499796 160.662125,118.968313 C160.546882,119.859859 160.473624,120.797888 160.817907,121.628516 C161.379067,122.981715 162.876942,123.67838 164.290557,124.07536 C165.399558,124.386882 166.537225,124.595333 167.629143,124.930529 C167.850074,124.998088 168.122257,125.054675 168.285857,124.89213 C168.362879,124.81591 168.395599,124.707353 168.430056,124.60486 C168.593076,124.121843 168.874814,123.715335 169.020172,123.236071 C169.225467,122.559039 169.378932,121.857466 169.564827,121.173504 C169.950227,119.757655 170.341707,118.343826 170.745928,116.933462 C171.542498,114.155175 172.388871,111.390458 173.331088,108.657787 C173.755578,107.426714 174.202942,106.18467 174.308051,104.887193 C174.41345,103.589716 174.133449,102.203315 173.259568,101.236415 C171.95251,101.475758 170.645742,101.71539 169.338684,101.954733" id="Fill-39" fill="#D384B9" sketch:type="MSShapeGroup"></path>
                <path d="M167.505213,119.833297 C167.181199,120.753715 166.866451,121.67933 166.563575,122.611584 C166.485105,122.83909 161.313917,121.137126 160.842808,121.021352 C160.78316,121.006916 160.719457,120.989594 160.682105,120.941379 C160.634617,120.880749 160.6462,120.794712 160.659809,120.719069 C161.315075,117.107556 161.307836,113.486227 161.722771,109.862299 C162.072555,106.810023 161.788789,103.992471 161.87305,100.91883 C161.878552,100.708936 161.893898,100.481141 162.033754,100.32437 C162.182297,100.157782 162.425814,100.122559 162.648193,100.100328 C164.638025,99.9022709 166.648705,99.9161291 168.63593,100.137283 C170.379639,100.331299 172.084258,100.848961 173.720831,101.467963 C173.769476,101.486151 173.820728,101.50665 173.85171,101.548514 C173.877481,101.583737 173.88472,101.628776 173.890801,101.672083 C174.144162,103.458351 173.177044,104.945513 172.550154,106.590312 C171.984361,108.074009 171.406117,109.553087 170.828162,111.032164 C169.686441,113.953076 168.545878,116.874853 167.505213,119.833297" id="Fill-40" fill="#F9A5D5" sketch:type="MSShapeGroup"></path>
                <path d="M141.102299,238.546965 C140.9248,239.729823 139.377121,240.034415 138.177779,240.054625 C135.410777,240.101397 132.644066,240.148168 129.877064,240.194651 C129.456918,234.550597 129.890963,228.878249 130.496136,223.250651 C130.716778,221.199055 131.023997,219.00368 132.418791,217.479563 C132.876,216.979512 133.618133,216.557702 134.204196,216.898672 C134.476668,217.056887 134.641715,217.344734 134.791706,217.620744 C137.681768,222.94577 139.477018,228.858328 140.034414,234.887525 C140.153422,236.174609 140.255925,237.567361 141.102299,238.546965" id="Fill-41" fill="#D384B9" sketch:type="MSShapeGroup"></path>
                <path d="M131.038765,237.773214 C134.459295,238.121979 137.841024,238.610771 141.376219,238.567464 C143.782143,231.55693 144.261649,223.899967 142.748716,216.645471 C139.629904,216.452322 136.500378,216.433844 133.379249,216.590327 C133.717162,216.573293 131.177173,236.042089 131.038765,237.773214" id="Fill-42" fill="#F9A5D5" sketch:type="MSShapeGroup"></path>
                <path d="M173.230901,223.57632 C172.865771,223.466898 172.495718,223.356609 172.114661,223.342173 C171.39106,223.314168 170.702784,223.630021 170.058521,223.959731 C165.138089,226.476155 160.859603,230.229427 157.729787,234.775505 C157.219589,235.516343 156.725606,236.318099 156.652348,237.213687 C156.533051,238.673421 157.547656,239.974074 158.624517,240.970135 C159.468863,241.751393 160.386178,242.454121 161.205044,243.248659 C161.37038,243.409473 161.586969,243.583567 161.807031,243.513121 C161.910403,243.480207 161.989162,243.39879 162.066764,243.323147 C162.432473,242.967164 162.869124,242.733306 163.21775,242.372992 C163.709996,241.863702 164.167495,241.308795 164.645843,240.784781 C165.635836,239.699797 166.630463,238.619143 167.635513,237.547729 C169.614631,235.436946 171.631681,233.361099 173.719673,231.356852 C174.660442,230.454046 175.626691,229.552105 176.313519,228.445179 C177.000347,227.337964 177.384878,225.97697 177.048993,224.719047 C175.776392,224.338234 174.503792,223.957133 173.230901,223.57632" id="Fill-43" fill="#D384B9" sketch:type="MSShapeGroup"></path>
                <path d="M163.425073,238.655521 C162.715949,239.327645 162.012616,240.008431 161.316812,240.700477 C161.142789,240.867642 157.318328,237.001772 156.951749,236.684765 C156.90571,236.644922 156.856775,236.600461 156.845482,236.540408 C156.831004,236.465054 156.880518,236.393742 156.927426,236.332535 C159.161933,233.415954 160.811247,230.189584 162.837273,227.15261 C164.543919,224.595189 165.579373,221.958082 167.059875,219.260635 C167.16064,219.076725 167.27849,218.880689 167.47452,218.804757 C167.683,218.724206 167.915804,218.803313 168.123995,218.88473 C169.985553,219.612865 171.768641,220.539057 173.436197,221.639343 C174.899905,222.604223 176.180034,223.839915 177.353896,225.134794 C177.388932,225.173193 177.425126,225.214767 177.433234,225.266158 C177.440183,225.309176 177.425995,225.352483 177.411807,225.393769 C176.820533,227.098621 175.279803,227.982661 173.969849,229.161765 C172.78788,230.225385 171.596934,231.27861 170.406278,232.332414 C168.05508,234.413458 165.703882,236.495658 163.425073,238.655521" id="Fill-44" fill="#F9A5D5" sketch:type="MSShapeGroup"></path>
                <path d="M115.385923,67.7381778 C114.622652,66.8157391 115.430515,65.4645614 116.217239,64.5620439 C118.032758,62.4795557 119.848277,60.3970674 121.663796,58.3145792 C126.153368,61.7776939 130.093073,65.892723 133.884525,70.1044711 C135.267157,71.6401366 136.698435,73.3357491 136.902282,75.3893661 C136.96917,76.0626452 136.787618,76.8947166 136.141328,77.1014353 C135.841348,77.1972881 135.516176,77.1274195 135.210115,77.0537976 C129.306638,75.6356384 123.697351,73.0123904 118.829038,69.3936592 C117.789531,68.6210627 116.681977,67.7658942 115.385923,67.7381778" id="Fill-45" fill="#D384B9" sketch:type="MSShapeGroup"></path>
                <path d="M122.6923,60.7952029 C120.145072,63.0976906 117.519085,65.2777639 115.187287,67.9275736 C118.805874,74.3993685 124.195098,79.8753916 130.616302,83.6049886 C132.845886,81.4220282 134.952699,79.1140549 136.923131,76.696082 C136.709727,76.9579448 123.890774,62.055436 122.6923,60.7952029" id="Fill-46" fill="#F9A5D5" sketch:type="MSShapeGroup"></path>
                <path d="M85.7425829,183.797705 C86.0599367,183.586944 86.3810548,183.373008 86.6355749,183.08978 C87.1188446,182.552196 87.3137161,181.822041 87.4703661,181.117003 C88.665076,175.733368 88.4953959,170.053802 86.9807262,164.750718 C86.7337345,163.886311 86.4299898,162.995631 85.7848581,162.367968 C84.7337682,161.345346 83.0815592,161.294533 81.6253799,161.48595 C80.4833693,161.63608 79.3552575,161.892169 78.2193276,162.014295 C77.9897093,162.038835 77.7172367,162.09398 77.6309489,162.307916 C77.590411,162.408099 77.603441,162.520698 77.6121277,162.628388 C77.6538238,163.136234 77.5559538,163.620695 77.6121277,164.118148 C77.6911766,164.821453 77.8281368,165.526202 77.9277442,166.228064 C78.134198,167.680291 78.3342815,169.133673 78.5207558,170.588499 C78.8884925,173.454844 79.2052672,176.328117 79.4212763,179.209764 C79.5185673,180.508107 79.5987744,181.825216 80.0157357,183.058888 C80.4326969,184.292271 81.2385325,185.456074 82.4242661,186.000587 C83.5303717,185.2661 84.6364773,184.531903 85.7425829,183.797705" id="Fill-47" fill="#D384B9" sketch:type="MSShapeGroup"></path>
                <path d="M80.351042,166.649008 C80.2841545,165.675755 80.2068429,164.701348 80.1165013,163.725498 C80.0982593,163.485577 85.5233886,163.014686 86.002315,162.93529 C86.0625427,162.925474 86.128272,162.916235 86.1815504,162.945683 C86.2490171,162.982639 86.2724711,163.066366 86.2898445,163.141142 C87.1173968,166.717433 88.5570714,170.041965 89.6104777,173.535106 C90.4970995,176.477093 91.8733613,178.954541 93.0124763,181.811936 C93.0900774,182.006528 93.1665203,182.222197 93.0999223,182.421121 C93.0292705,182.632747 92.8193421,182.760936 92.6238915,182.868626 C90.874102,183.833794 89.0212304,184.612165 87.1075519,185.190746 C85.4287037,185.69917 83.657487,185.894051 81.9088557,185.969406 C81.8570251,185.971715 81.8017198,185.97287 81.7568385,185.946597 C81.7189066,185.924366 81.6945839,185.885968 81.6717089,185.848724 C80.7320983,184.306995 81.0320788,182.559992 80.9570837,180.802017 C80.889617,179.216115 80.8357595,177.629636 80.7813229,176.043157 C80.6738975,172.910331 80.5656034,169.776638 80.351042,166.649008" id="Fill-48" fill="#F9A5D5" sketch:type="MSShapeGroup"></path>
                <path d="M216.281863,192.782171 C215.518592,191.859732 216.326454,190.508554 217.113179,189.605748 C218.928698,187.523549 220.744217,185.44106 222.559736,183.358572 C227.049308,186.821398 230.989013,190.936427 234.780755,195.148464 C236.163097,196.683841 237.594374,198.379742 237.798222,200.43307 C237.865399,201.10635 237.683558,201.93871 237.037268,202.14514 C236.737287,202.240992 236.412405,202.171124 236.106054,202.097791 C230.202867,200.679343 224.593291,198.056383 219.724978,194.437652 C218.685471,193.665056 217.577917,192.809599 216.281863,192.782171" id="Fill-49" fill="#D384B9" sketch:type="MSShapeGroup"></path>
                <path d="M223.58824,185.838907 C221.041012,188.141395 218.415025,190.321757 216.083516,192.971567 C219.701814,199.443073 225.091328,204.919096 231.512242,208.648693 C233.741826,206.465733 235.848639,204.158048 237.81907,201.739786 C237.605667,202.001649 224.786714,187.09914 223.58824,185.838907" id="Fill-50" fill="#F9A5D5" sketch:type="MSShapeGroup"></path>
                <path d="M205.959755,226.61185 C206.285506,226.414082 206.615021,226.213426 206.881123,225.940881 C207.38582,225.423218 207.610516,224.701435 207.795543,224.003615 C209.209447,218.672815 209.271701,212.991228 207.974778,207.630979 C207.763691,206.757044 207.496431,205.854815 206.877359,205.201457 C205.868545,204.136972 204.2201,204.019466 202.757261,204.151408 C201.609749,204.255056 200.47266,204.465239 199.332677,204.540882 C199.1019,204.556183 198.82769,204.600357 198.732716,204.81054 C198.688124,204.908991 198.696521,205.021878 198.700865,205.129857 C198.721713,205.639147 198.604153,206.119277 198.639768,206.618462 C198.690441,207.324366 198.797866,208.034311 198.869097,208.739349 C199.016192,210.198794 199.156626,211.659105 199.283742,213.120572 C199.533629,215.999042 199.733133,218.882998 199.831003,221.770996 C199.875305,223.072227 199.901655,224.391357 200.267944,225.640908 C200.634233,226.890459 201.391713,228.085731 202.554571,228.678171 C203.689632,227.989301 204.824694,227.30072 205.959755,226.61185" id="Fill-51" fill="#D384B9" sketch:type="MSShapeGroup"></path>
                <path d="M201.272994,209.258455 C201.246066,208.283182 201.208713,207.306465 201.15804,206.328016 C201.149643,206.08723 206.58983,205.837204 207.071362,205.77744 C207.132169,205.769934 207.197898,205.763293 207.250018,205.794763 C207.316037,205.834606 207.336306,205.919198 207.350494,205.994553 C208.030952,209.601447 209.333956,212.981989 210.243742,216.514684 C211.00933,219.490451 212.283378,222.021599 213.304643,224.922589 C213.374426,225.120647 213.441893,225.338914 213.367188,225.535239 C213.288139,225.74369 213.073288,225.863217 212.873494,225.963112 C211.085772,226.85639 209.202497,227.55883 207.266813,228.05917 C205.568564,228.49888 203.790977,228.621583 202.040609,228.626202 C201.988778,228.626202 201.933183,228.625336 201.88975,228.597042 C201.852976,228.573368 201.829811,228.533814 201.808674,228.495704 C200.933055,226.917309 201.303977,225.183875 201.300792,223.424457 C201.297896,221.837112 201.308899,220.249478 201.319323,218.662133 C201.340171,215.527573 201.359861,212.392148 201.272994,209.258455" id="Fill-52" fill="#F9A5D5" sketch:type="MSShapeGroup"></path>
                <path d="M186.484189,168.751994 C187.017262,167.68058 188.584052,167.86449 189.731564,168.212389 C192.379268,169.015012 195.026973,169.817635 197.674387,170.619969 C196.336636,176.120244 194.176835,181.385795 191.868201,186.55636 C191.026461,188.441368 190.058184,190.436665 188.261197,191.460153 C187.67195,191.795927 186.836,191.970309 186.383134,191.466505 C186.172916,191.232358 186.104001,190.907845 186.046669,190.59921 C184.935352,184.646811 185.0477,178.47008 186.373578,172.561854 C186.656765,171.300177 186.988017,169.943225 186.484189,168.751994" id="Fill-53" fill="#D384B9" sketch:type="MSShapeGroup"></path>
                <path d="M195.823253,172.568783 C192.675485,171.189889 189.607634,169.689446 186.229669,168.648635 C181.781503,174.584001 178.967304,181.724456 178.17334,189.09155 C181.082224,190.230235 184.0551,191.205797 187.073147,192.012461 C186.746527,191.924981 195.158721,174.174028 195.823253,172.568783" id="Fill-54" fill="#F9A5D5" sketch:type="MSShapeGroup"></path>
                <path d="M143.332462,190.791493 C143.646341,191.007162 143.964564,191.225429 144.322745,191.355928 C145.002624,191.603932 145.755181,191.514142 146.469806,191.397791 C151.927655,190.508843 157.155018,188.246487 161.533401,184.878358 C162.247157,184.329226 162.964099,183.717731 163.309829,182.887681 C163.872437,181.53506 163.307513,179.986402 162.589413,178.708846 C162.026226,177.706723 161.369512,176.757145 160.83499,175.750402 C160.726986,175.546859 160.57439,175.315023 160.343324,175.314445 C160.23503,175.314157 160.134843,175.367569 160.037842,175.415784 C159.580342,175.642712 159.09244,175.731347 158.649998,175.967803 C158.024266,176.301844 157.418514,176.689586 156.801759,177.042105 C155.525394,177.771683 154.245844,178.495487 152.959635,179.207743 C150.426305,180.610311 147.867206,181.968707 145.263225,183.236735 C144.089942,183.808099 142.892626,184.370801 141.898,185.214132 C140.903663,186.057463 140.118386,187.234836 140.05063,188.534911 C141.144574,189.287009 142.238518,190.039107 143.332462,190.791493" id="Fill-55" fill="#D384B9" sketch:type="MSShapeGroup"></path>
                <path d="M157.307904,179.442178 C158.189603,179.019502 159.068696,178.587009 159.943736,178.141525 C160.160903,178.035567 162.610261,182.885371 162.861596,183.299386 C162.893158,183.351354 162.926167,183.408808 162.918639,183.469149 C162.909083,183.54537 162.839879,183.598204 162.776466,183.642089 C159.752049,185.733816 157.188896,188.299321 154.325472,190.569473 C151.913467,192.481043 150.11619,194.67382 147.876761,196.787489 C147.724165,196.931846 147.551589,197.082265 147.341661,197.09468 C147.118413,197.107672 146.921225,196.960717 146.748359,196.819536 C145.20068,195.556993 143.788803,194.129595 142.540525,192.571988 C141.444844,191.205508 140.606867,189.637507 139.888478,188.04612 C139.867051,187.998771 139.845334,187.947957 139.853442,187.896566 C139.860101,187.853548 139.886741,187.816593 139.91309,187.781658 C141.000664,186.340113 142.739451,185.97056 144.349095,185.249355 C145.80122,184.598884 147.259137,183.961117 148.716764,183.322772 C151.595245,182.061961 154.474015,180.800285 157.307904,179.442178" id="Fill-56" fill="#F9A5D5" sketch:type="MSShapeGroup"></path>
                <path d="M153.729855,155.448091 C153.552357,156.630949 152.004388,156.935541 150.805335,156.955751 C148.038333,157.002522 145.271622,157.049294 142.50491,157.096065 C142.084474,151.451723 142.518519,145.779374 143.123692,140.151777 C143.344044,138.100181 143.651553,135.905095 145.046347,134.380689 C145.503556,133.880638 146.245689,133.458828 146.831752,133.799798 C147.103935,133.958013 147.269271,134.24586 147.419262,134.522158 C150.309325,139.846896 152.104574,145.759453 152.661971,151.788651 C152.780689,153.075734 152.883481,154.468775 153.729855,155.448091" id="Fill-57" fill="#D384B9" sketch:type="MSShapeGroup"></path>
                <path d="M143.666321,154.674628 C147.086851,155.023105 150.468581,155.511896 154.003775,155.468589 C156.409699,148.458344 156.889205,140.801093 155.376273,133.546597 C152.25746,133.353447 149.127645,133.33497 146.006805,133.491452 C146.344718,133.474418 143.804729,152.943215 143.666321,154.674628" id="Fill-58" fill="#F9A5D5" sketch:type="MSShapeGroup"></path>
                <path d="M190.410285,144.154208 C190.255372,143.806597 190.098432,143.454656 189.861286,143.156704 C189.411315,142.591115 188.72275,142.276129 188.052427,142.003006 C182.932779,139.918208 177.290193,139.125113 171.791806,139.716686 C170.895629,139.813116 169.963836,139.961226 169.234444,140.488994 C168.045814,141.349359 167.716299,142.964421 167.659546,144.427619 C167.614665,145.575543 167.677209,146.72722 167.605689,147.864172 C167.590921,148.093988 167.599318,148.371153 167.796217,148.492124 C167.888585,148.548711 168.002091,148.555063 168.110096,148.564591 C168.619136,148.60963 169.081268,148.787766 169.58249,148.816637 C170.291035,148.857635 171.010872,148.842621 171.721444,148.86312 C173.191811,148.90585 174.662468,148.954931 176.131967,149.017582 C179.027242,149.140862 181.921359,149.315534 184.806209,149.590389 C186.106028,149.714535 187.421483,149.858314 188.711457,149.657081 C190.001141,149.455848 191.287641,148.86081 192.026299,147.787375 C191.487724,146.576223 190.94886,145.36536 190.410285,144.154208" id="Fill-59" fill="#D384B9" sketch:type="MSShapeGroup"></path>
                <path d="M172.547259,146.553126 C171.57377,146.454097 170.597965,146.365174 169.617816,146.289242 C169.377484,146.266434 169.829482,140.855371 169.832088,140.371488 C169.832378,140.310569 169.834404,140.244454 169.872626,140.196816 C169.920692,140.136764 170.00727,140.127814 170.084002,140.123483 C173.759052,139.915032 177.289035,139.062173 180.919783,138.617844 C183.977789,138.24396 186.659371,137.310262 189.676259,136.673938 C189.882134,136.630631 190.107988,136.591943 190.293304,136.690972 C190.490492,136.796064 190.581702,137.024147 190.655539,137.234619 C191.313701,139.117318 191.769752,141.069885 192.017902,143.048148 C192.236517,144.783891 192.129671,146.557457 191.908739,148.28887 C191.902079,148.34026 191.893972,148.394827 191.860383,148.434381 C191.832007,148.467583 191.789732,148.485195 191.749194,148.501362 C190.066292,149.163959 188.390339,148.573829 186.63997,148.350365 C185.06073,148.148555 183.483226,147.933175 181.906012,147.718372 C178.790964,147.294253 175.675337,146.870999 172.547259,146.553126" id="Fill-60" fill="#F9A5D5" sketch:type="MSShapeGroup"></path>
                <path d="M192.312381,102.505309 C192.845165,101.434183 194.412244,101.617805 195.559467,101.965704 C198.207171,102.768327 200.854875,103.570949 203.502579,104.373572 C202.164539,109.873558 200.004737,115.139398 197.696104,120.309674 C196.854653,122.194683 195.886086,124.189979 194.089389,125.213756 C193.500141,125.549241 192.664192,125.723624 192.211036,125.219819 C192.000818,124.985962 191.932193,124.661448 191.874572,124.352525 C190.763544,118.400125 190.875602,112.223684 192.20177,106.315168 C192.484957,105.053492 192.816209,103.69654 192.312381,102.505309" id="Fill-61" fill="#D384B9" sketch:type="MSShapeGroup"></path>
                <path d="M201.651445,106.322386 C198.503677,104.943203 195.435826,103.442761 192.057861,102.40195 C187.609405,108.337316 184.795496,115.47777 184.001532,122.844865 C186.910127,123.98355 189.883002,124.9594 192.901339,125.765776 C192.57443,125.678585 200.986623,107.927631 201.651445,106.322386" id="Fill-62" fill="#F9A5D5" sketch:type="MSShapeGroup"></path>
                <path d="M54.8975836,207.480271 C55.0084837,207.844049 55.1208316,208.212447 55.3191778,208.53725 C55.6958907,209.153941 56.3407329,209.550922 56.9722555,209.904018 C61.7959761,212.600888 67.2978379,214.079966 72.8272076,214.166868 C73.7285968,214.181015 74.6716821,214.148679 75.4607234,213.714166 C76.746354,213.006241 77.272478,211.444014 77.5096247,209.998716 C77.69552,208.864939 77.7754375,207.714417 77.9868137,206.594787 C78.0296681,206.368436 78.0554386,206.092426 77.875045,205.948359 C77.7904945,205.8808 77.6787257,205.86059 77.572748,205.837781 C77.0729736,205.730669 76.6363225,205.4971 76.1423393,205.407021 C75.4442187,205.27941 74.7278561,205.206077 74.0253922,205.098676 C72.5712397,204.876078 71.1182455,204.646839 69.6672783,204.404609 C66.8093562,203.927077 63.9589627,203.399021 61.1297068,202.772225 C59.8550793,202.489863 58.5674219,202.185848 57.262391,202.227423 C55.9573602,202.268998 54.6074481,202.701779 53.7419639,203.676186 C54.1270739,204.944214 54.5124736,206.212242 54.8975836,207.480271" id="Fill-63" fill="#D384B9" sketch:type="MSShapeGroup"></path>
                <path d="M72.9210239,207.290009 C73.8748228,207.50741 74.8323859,207.715572 75.7954506,207.911031 C76.0311496,207.962999 74.9151991,213.277632 74.8529444,213.757762 C74.8451264,213.818103 74.8349919,213.883352 74.7915585,213.925793 C74.7362532,213.979493 74.6490967,213.977761 74.5723643,213.972853 C70.8996304,213.72889 67.2914677,214.142616 63.6332117,214.138286 C60.5523312,214.134244 57.7760641,214.73188 54.7032913,214.993454 C54.4939419,215.011354 54.2649028,215.022037 54.0931958,214.901066 C53.9104857,214.772588 53.8479415,214.535266 53.8010334,214.317288 C53.3800183,212.368185 53.168063,210.374332 53.165457,208.380767 C53.162851,206.631165 53.4877333,204.884162 53.9206202,203.193169 C53.9336502,203.142932 53.9484176,203.089809 53.9866391,203.054586 C54.0187798,203.025137 54.0627924,203.012723 54.1050677,203.001752 C55.8568841,202.550493 57.4474176,203.341856 59.1569588,203.778101 C60.6994259,204.171906 62.2381288,204.578992 63.7771213,204.985789 C66.816016,205.7887 69.856069,206.591034 72.9210239,207.290009" id="Fill-64" fill="#F9A5D5" sketch:type="MSShapeGroup"></path>
                <path d="M102.85421,234.452723 C103.788609,235.202511 103.270882,236.688518 102.683082,237.730773 C101.32651,240.135754 99.9702278,242.541023 98.6136559,244.946004 C93.5151462,242.458163 88.8237529,239.220822 84.2571583,235.859045 C82.5924984,234.633458 80.8470522,233.260626 80.2314552,231.290448 C80.0296344,230.644596 80.0391898,229.792892 80.6301744,229.460583 C80.9046739,229.306122 81.2370847,229.309298 81.5521221,229.319691 C87.6209354,229.520347 93.6460257,230.96016 99.1467293,233.524222 C100.32146,234.071911 101.579003,234.686581 102.85421,234.452723" id="Fill-65" fill="#D384B9" sketch:type="MSShapeGroup"></path>
                <path d="M97.1039087,242.72349 C99.1325411,239.955885 101.263097,237.291929 103.010281,234.227238 C98.1555777,228.617252 91.7688314,224.338811 84.724792,221.978581 C82.9828205,224.565451 81.387075,227.249907 79.9468213,230.014913 C80.1026026,229.715517 95.6749477,241.730605 97.1039087,242.72349" id="Fill-66" fill="#F9A5D5" sketch:type="MSShapeGroup"></path>
                <path d="M186.889858,61.3428919 C186.610725,61.6021563 186.328408,61.8648853 186.123402,62.1856457 C185.733948,62.7942531 185.660111,63.5460622 185.619863,64.2669791 C185.314671,69.7727396 186.403982,75.3498124 188.759524,80.3384876 C189.143475,81.1517927 189.587655,81.9818431 190.326313,82.4969074 C191.52971,83.3364854 193.16831,83.1199505 194.574106,82.6961195 C195.676737,82.3635219 196.748096,81.9287199 197.849279,81.6252823 C198.072238,81.5637864 198.33197,81.4653352 198.382353,81.2404276 C198.406096,81.1350473 198.375114,81.0259137 198.348764,80.9211108 C198.225413,80.4268338 198.243365,79.9328456 198.107274,79.4509832 C197.915008,78.7699088 197.6657,78.0963409 197.453166,77.4198859 C197.013909,76.0202044 196.580443,74.6182131 196.160296,73.2124686 C195.332165,70.4434204 194.553258,67.6590703 193.872511,64.8501797 C193.565581,63.5850385 193.27255,62.2979551 192.661007,61.1480104 C192.049464,59.9980658 191.065261,58.9797744 189.80656,58.6336073 C188.834229,59.5367021 187.862188,60.439797 186.889858,61.3428919" id="Fill-67" fill="#D384B9" sketch:type="MSShapeGroup"></path>
                <path d="M194.993674,77.395634 C195.21779,78.3452117 195.451752,79.294212 195.699612,80.2426348 C195.756655,80.4764925 190.479489,81.8166991 190.019673,81.9720268 C189.961762,81.9916593 189.898639,82.0112918 189.841017,81.9907932 C189.768338,81.9650977 189.731854,81.8865677 189.702319,81.8155443 C188.305499,78.4196997 186.344623,75.3714658 184.738743,72.0942824 C183.386225,69.3341843 181.626011,67.1116701 180.038084,64.4757187 C179.92979,64.2958504 179.819469,64.0957721 179.852768,63.8884761 C179.888383,63.6684766 180.074568,63.5079521 180.249749,63.3699472 C181.820014,62.1351209 183.522027,61.0680369 185.316408,60.1883278 C186.890726,59.41602 188.606927,58.937911 190.320522,58.5810615 C190.371195,58.5706678 190.425631,58.5602741 190.473987,58.5790405 C190.514815,58.5949197 190.545218,58.6289879 190.573884,58.6621899 C191.75151,60.0318452 191.739059,61.8042555 192.098109,63.5267184 C192.422412,65.0808615 192.733106,66.6378918 193.04438,68.1946333 C193.658818,71.2688514 194.274126,74.3436469 194.993674,77.395634" id="Fill-68" fill="#F9A5D5" sketch:type="MSShapeGroup"></path>
                <path d="M237.106761,117.577292 C236.801569,118.734166 235.229857,118.869284 234.035436,118.759573 C231.279728,118.50666 228.524309,118.253459 225.7686,118.000546 C225.965499,112.344077 227.014561,106.75228 228.228672,101.223422 C228.671114,99.2079157 229.215769,97.0587347 230.768371,95.6945648 C231.277411,95.2470594 232.060951,94.9081101 232.606475,95.3105763 C232.859837,95.497085 232.992744,95.8011 233.111751,96.0918342 C235.405038,101.698067 236.545891,107.770283 236.443388,113.824021 C236.421671,115.11659 236.372157,116.51223 237.106761,117.577292" id="Fill-69" fill="#D384B9" sketch:type="MSShapeGroup"></path>
                <path d="M227.187137,115.719134 C230.549466,116.436009 233.857938,117.288002 237.376918,117.627529 C240.531925,110.918989 241.842167,103.359034 241.127832,95.9835667 C238.048689,95.4540667 234.939432,95.0969285 231.819751,94.9144618 C232.157952,94.934383 227.513178,114.013128 227.187137,115.719134" id="Fill-70" fill="#F9A5D5" sketch:type="MSShapeGroup"></path>
                <path d="M205.294933,142.369383 C205.516444,142.678884 205.742008,142.99156 206.034171,143.235811 C206.58954,143.699196 207.327619,143.869248 208.039639,144.001479 C213.475771,145.012841 219.163239,144.65397 224.428243,142.967597 C225.286489,142.692742 226.169346,142.360144 226.776836,141.696104 C227.766829,140.614584 227.762196,138.966321 227.521864,137.521888 C227.333074,136.388689 227.038884,135.27339 226.87876,134.145388 C226.846329,133.917016 226.781758,133.647357 226.564591,133.568539 C226.462667,133.531583 226.350609,133.548329 226.242894,133.560743 C225.735012,133.619064 225.24624,133.537646 224.749361,133.610113 C224.047187,133.712607 223.345302,133.872554 222.645155,133.995257 C221.196214,134.249613 219.746405,134.497329 218.29428,134.731764 C215.433462,135.193994 212.563958,135.60541 209.682582,135.916932 C208.38479,136.057246 207.067019,136.181104 205.844511,136.637849 C204.621715,137.094593 203.48231,137.936192 202.976165,139.136373 C203.748991,140.214139 204.521818,141.291617 205.294933,142.369383" id="Fill-71" fill="#D384B9" sketch:type="MSShapeGroup"></path>
                <path d="M222.304347,136.423912 C223.277546,136.324884 224.251614,136.215461 225.22655,136.092758 C225.466593,136.066485 226.119543,141.457338 226.215096,141.931982 C226.227258,141.991457 226.23855,142.056707 226.210753,142.110985 C226.176006,142.17941 226.092903,142.205683 226.018487,142.225315 C222.461287,143.169407 219.176848,144.715178 215.710857,145.88129 C212.791549,146.863204 210.354353,148.317163 207.527993,149.547659 C207.335437,149.631675 207.122034,149.714824 206.920214,149.655349 C206.705942,149.592121 206.570429,149.387135 206.455765,149.196006 C205.429867,147.484515 204.587836,145.663889 203.944153,143.776282 C203.378649,142.120223 203.124129,140.361671 202.990064,138.621597 C202.9863,138.569917 202.982825,138.514773 203.008017,138.469156 C203.028865,138.430758 203.066507,138.405062 203.103281,138.381099 C204.617082,137.393411 206.378164,137.634198 208.137798,137.500812 C209.725147,137.380419 211.313653,137.273595 212.90216,137.166483 C216.038925,136.954856 219.176269,136.742363 222.304347,136.423912" id="Fill-72" fill="#F9A5D5" sketch:type="MSShapeGroup"></path>
                <path d="M247.361113,170.266584 C247.05621,171.423169 245.484208,171.558287 244.290077,171.448864 C241.534369,171.195663 238.77866,170.942461 236.023241,170.689549 C236.21985,165.033369 237.268913,159.441283 238.483313,153.912714 C238.925755,151.896918 239.470411,149.748026 241.023012,148.383567 C241.531763,147.936062 242.315303,147.597113 242.861116,147.999579 C243.114478,148.186376 243.247385,148.490391 243.366392,148.781126 C245.659679,154.387358 246.800532,160.459285 246.698029,166.513024 C246.676312,167.805593 246.626798,169.201232 247.361113,170.266584" id="Fill-73" fill="#D384B9" sketch:type="MSShapeGroup"></path>
                <path d="M237.441778,168.408137 C240.803818,169.125012 244.11229,169.977005 247.631559,170.316531 C250.786566,163.607992 252.096519,156.048037 251.382473,148.672858 C248.30333,148.143069 245.194073,147.785931 242.074392,147.603753 C242.412304,147.623386 237.767819,166.702131 237.441778,168.408137" id="Fill-74" fill="#F9A5D5" sketch:type="MSShapeGroup"></path>
                <path d="M135.443497,107.053985 C135.757376,107.269943 136.075599,107.487921 136.433491,107.618708 C137.113659,107.866713 137.866216,107.776634 138.580841,107.660283 C144.03869,106.771624 149.265763,104.509267 153.644436,101.14085 C154.357903,100.592007 155.075134,99.9805122 155.420575,99.150173 C155.983472,97.7978404 155.418258,96.2488942 154.700448,94.971627 C154.137261,93.9695035 153.480547,93.0199258 152.946025,92.0131829 C152.838021,91.8093514 152.685425,91.5775147 152.454359,91.5769373 C152.346064,91.5766486 152.245878,91.6303492 152.148877,91.6785643 C151.691377,91.9052042 151.203475,91.9941279 150.761033,92.2302952 C150.135301,92.5643364 149.529259,92.9523669 148.912794,93.3048857 C147.636429,94.034464 146.356879,94.758268 145.070669,95.4702347 C142.53734,96.8730921 139.97824,98.2314877 137.37397,99.499516 C136.200977,100.070879 135.003661,100.633293 134.009035,101.476624 C133.014698,102.319955 132.229131,103.497616 132.161665,104.797692 C133.255609,105.54979 134.349263,106.301887 135.443497,107.053985" id="Fill-75" fill="#D384B9" sketch:type="MSShapeGroup"></path>
                <path d="M149.418649,95.7049585 C150.300638,95.2822824 151.179442,94.84979 152.054771,94.4040169 C152.271938,94.2983478 154.721296,99.1478633 154.972631,99.561878 C155.004193,99.6141351 155.036912,99.6713003 155.029384,99.7319301 C155.020118,99.8081504 154.950914,99.8606962 154.887501,99.9045806 C151.863084,101.996308 149.299931,104.562102 146.436507,106.831965 C144.024502,108.743824 142.227225,110.936312 139.987796,113.05027 C139.83491,113.194338 139.662624,113.345046 139.452696,113.357172 C139.229448,113.370164 139.03226,113.223498 138.859105,113.082317 C137.311715,111.819774 135.899838,110.392087 134.65156,108.83448 C133.555879,107.468289 132.717902,105.900287 131.999513,104.308612 C131.978086,104.261263 131.956369,104.210738 131.964187,104.159347 C131.970847,104.116329 131.997776,104.079373 132.024125,104.044439 C133.111989,102.602894 134.850196,102.233052 136.45984,101.512136 C137.912255,100.861665 139.370172,100.223609 140.827799,99.5852638 C143.70628,98.324742 146.58505,97.0627767 149.418649,95.7049585" id="Fill-76" fill="#F9A5D5" sketch:type="MSShapeGroup"></path>
                <path d="M107.383452,114.781683 C105.347291,116.371337 102.823227,117.243251 100.778959,118.822801 C97.1453153,121.630537 95.4647297,126.405564 95.4221649,130.989175 C95.3796001,135.573074 96.7691815,140.042066 98.3015141,144.363814 C100.84324,151.531696 103.817564,158.546561 107.203637,165.35846 C109.234007,169.442885 111.546405,173.608728 115.30282,176.207724 C121.440548,180.453829 129.678429,179.455459 137.017815,178.067037 C142.435416,177.042105 147.830432,175.899667 153.198519,174.641455 C156.255945,173.92458 159.411821,173.118493 161.861178,171.157841 C167.425005,166.703863 167.523455,157.952389 172.577662,152.9308 C176.525475,149.00892 182.678838,148.171941 187.003653,144.667251 C192.00632,140.613141 193.686616,133.74552 194.127031,127.332623 C194.429618,122.927725 194.269493,118.381936 192.604543,114.290582 C189.841306,107.499759 183.35669,102.93578 176.714555,99.797468 C161.924591,92.8082991 144.689034,91.1022928 128.80947,95.0556425 C124.570943,96.1108893 120.26408,97.6569484 117.223738,100.784578 C113.222936,104.900185 111.909508,111.248122 107.383452,114.781683" id="Fill-77" fill="#F4F3F2" sketch:type="MSShapeGroup"></path>
                <path d="M128.713337,150.09939 C129.242646,150.36183 129.787881,150.595977 130.347883,150.799231 C133.122992,151.806551 136.10716,152.099595 139.059188,152.182456 C148.171529,152.437389 160.373727,147.467192 158.886565,136.299766 C157.7932,128.086164 146.775578,117.640232 139.219023,115.155855 C130.692166,112.352739 121.093949,120.953216 119.06966,129.123222 C117.068246,137.200839 121.30851,146.426092 128.713337,150.09939" id="Fill-78" fill="#F9BF07" sketch:type="MSShapeGroup"></path>
                <path d="M210.364487,184.699934 C208.405349,185.261481 206.344575,185.665102 204.333895,185.331927 C202.322926,184.998463 200.359154,183.806078 199.569823,181.93204 C203.163219,184.892505 208.689982,184.739199 212.669067,182.318916 C216.648441,179.898922 219.202039,175.611531 220.46161,171.136765 C221.720891,166.662 221.827447,161.955686 221.887386,157.308558 C221.920106,154.771924 221.913446,152.114608 220.724817,149.871595 C218.559224,145.785149 213.199534,144.334076 210.678077,140.456081 C216.695928,141.969804 221.393982,147.099082 223.395975,152.956784 C225.397968,158.814486 224.974636,165.280796 223.310556,171.242723 C222.349228,174.687938 220.911001,178.131131 218.305283,180.58808 C216.117395,182.651514 213.258893,183.870461 210.364487,184.699934" id="Fill-79" fill="#E1E5DA" sketch:type="MSShapeGroup"></path>
                <path d="M185.450762,175.950192 C187.200841,175.175863 189.065585,174.534631 190.979263,174.586022 C192.893231,174.637124 194.874666,175.493447 195.851629,177.135359 C192.125328,174.843843 187.003653,175.698145 183.614974,178.461997 C180.226585,181.225848 178.406433,185.543265 177.81429,189.868477 C177.222147,194.193401 177.732346,198.585306 178.278739,202.916581 C178.576692,205.280565 178.926766,207.75195 180.323297,209.685462 C182.86734,213.208052 188.041713,213.86805 190.889501,217.151008 C185.094897,216.51786 180.0598,212.350862 177.438736,207.159222 C174.817671,201.967581 174.37407,195.897097 175.149792,190.136692 C175.598025,186.807829 176.489859,183.419491 178.596093,180.797975 C180.364414,178.596826 182.865602,177.094651 185.450762,175.950192" id="Fill-80" fill="#E1E5DA" sketch:type="MSShapeGroup"></path>
                <path d="M167.540538,79.6331613 C166.764527,77.7536384 166.134452,75.7560318 166.244484,73.7266668 C166.354805,71.697013 167.326267,69.6191442 169.107039,68.6300128 C166.553151,72.5181134 167.316711,77.9779685 170.168263,81.6541536 C173.020394,85.3303387 177.575985,87.3871315 182.175589,88.1409616 C186.774904,88.8947917 191.47759,88.4804883 196.116573,88.0266312 C198.648744,87.7786265 201.296738,87.4786535 203.401234,86.0529878 C207.235251,83.4557239 208.089732,77.9837428 211.676757,75.0564797 C210.8327,81.1875931 206.238598,86.4098373 200.621203,89.0408806 C195.003518,91.6716352 188.511084,91.9664114 182.384359,90.9761251 C178.844243,90.4038956 175.253453,89.3590426 172.516276,87.0481822 C170.218067,85.1077408 168.687182,82.409716 167.540538,79.6331613" id="Fill-81" fill="#E1E5DA" sketch:type="MSShapeGroup"></path>
                <path d="M173.461678,53.7341444 C174.409107,55.3523818 175.238396,57.0967869 175.395915,58.9638952 C175.553434,60.8312921 174.930598,62.8514183 173.429827,63.9797094 C175.267641,60.106622 173.876612,55.2172641 170.804998,52.2207098 C167.733673,49.2241556 163.311856,47.9217704 159.015997,47.8146578 C154.720138,47.7075452 150.478136,48.6805087 146.299837,49.6811886 C144.019001,50.227434 141.639136,50.8360414 139.898612,52.4040427 C136.727969,55.260571 136.643419,60.365309 133.740037,63.4914954 C133.73106,57.786234 137.262201,52.4366673 142.057835,49.3243391 C146.852889,46.2120109 152.744205,45.1221186 158.464681,45.2520395 C161.770258,45.327105 165.182101,45.8274449 167.975163,47.5917712 C170.32057,49.0731586 172.061673,51.3433105 173.461678,53.7341444" id="Fill-82" fill="#E1E5DA" sketch:type="MSShapeGroup"></path>
                <path d="M87.033715,89.5233204 C85.0126111,89.7886478 82.9147747,89.8827683 80.9756153,89.2553945 C79.0367454,88.6280208 77.272478,87.1581819 76.7709663,85.1882918 C79.8836979,88.6476533 85.3719506,89.314292 89.6675203,87.5101233 C93.96309,85.7059545 97.1267837,81.8441269 99.0387248,77.6052398 C100.950376,73.3666414 101.756501,68.728464 102.507611,64.1416775 C102.917912,61.6379567 103.307076,59.0089344 102.465625,56.6149246 C100.932713,52.2533344 95.8481024,50.0247573 93.9321075,45.8164738 C99.658086,48.2041319 103.540169,53.9723328 104.647722,60.061294 C105.754986,66.1505439 104.373513,72.4826016 101.840473,78.1321414 C100.376476,81.3966214 98.4416594,84.5886345 95.4988974,86.6327239 C93.0278228,88.3494125 90.019621,89.1315366 87.033715,89.5233204" id="Fill-83" fill="#E1E5DA" sketch:type="MSShapeGroup"></path>
                <path d="M55.1865609,74.1019939 C56.3210431,72.6079032 57.6173872,71.1744422 59.2861009,70.3120559 C60.9545251,69.4496696 63.0642333,69.2469929 64.6854598,70.1948383 C60.3933648,69.9910068 56.4003815,73.1501065 54.8060838,77.1291518 C53.2114965,81.1079082 53.7046111,85.6785268 55.2560545,89.6743174 C56.8074979,93.6701079 59.337642,97.2010703 61.869813,100.66303 C63.2518659,102.552658 64.7300515,104.509845 66.8504733,105.509659 C70.7137352,107.33115 75.4728848,105.447585 79.4832414,106.919156 C74.2037589,109.119151 67.8937451,107.923878 63.1693423,104.705304 C58.4449395,101.486729 55.1723727,96.4824631 53.0948053,91.1663871 C51.8943043,88.0947675 51.046483,84.7615737 51.6070643,81.5123954 C52.0778831,78.7840558 53.5108979,76.3092063 55.1865609,74.1019939" id="Fill-84" fill="#E1E5DA" sketch:type="MSShapeGroup"></path>
                <path d="M103.612269,224.957812 C104.147079,222.996584 104.869523,221.030447 106.198587,219.489007 C107.527361,217.947856 109.568445,216.892321 111.584626,217.191716 C107.1825,218.719298 104.44706,223.509916 104.458063,228.157621 C104.469066,232.805037 106.820844,237.205892 110.004227,240.600582 C113.1879,243.995272 117.167853,246.527286 121.121457,248.988855 C123.279521,250.332526 125.561515,251.705646 128.101215,251.855777 C132.728326,252.129188 136.752871,248.312689 141.386064,248.174973 C136.966564,252.520106 130.131295,253.864066 124.070299,252.532232 C118.009304,251.200398 112.684361,247.485237 108.43541,242.974382 C105.979972,240.36759 103.773841,237.355734 103.018678,233.859995 C102.384549,230.924359 102.822069,227.855338 103.612269,224.957812" id="Fill-85" fill="#E1E5DA" sketch:type="MSShapeGroup"></path>
                <path d="M134.282665,199.663361 C134.043492,201.522097 133.63348,203.408837 132.615979,204.984056 C131.598477,206.559564 129.868957,207.781399 127.989735,207.762921 C131.815355,205.811508 133.704132,201.091048 133.103302,196.848407 C132.502472,192.605767 129.795409,188.884543 126.456824,186.186807 C123.118238,183.489359 119.161739,181.680282 115.238539,179.932124 C113.096979,178.977927 110.838729,178.01247 108.500271,178.19638 C104.240317,178.531288 101.050273,182.525057 96.8372272,183.236447 C100.320591,178.71029 106.391142,176.618851 112.095404,177.069244 C117.799376,177.519348 123.134164,180.238737 127.587831,183.820802 C130.161119,185.890876 132.558936,188.362549 133.692839,191.459287 C134.6449,194.059727 134.635924,196.91741 134.282665,199.663361" id="Fill-86" fill="#E1E5DA" sketch:type="MSShapeGroup"></path>
                <path d="M53.6802884,150.118445 C55.4205225,150.826081 57.1439624,151.70579 58.4096136,153.091036 C59.6752648,154.475993 60.415371,156.456566 59.9150175,158.262755 C59.0060999,154.074971 54.9155361,151.042616 50.648922,150.531882 C46.382308,150.021437 42.0800785,151.67432 38.6080073,154.198829 C35.135936,156.723625 32.3663287,160.071544 29.6641881,163.403005 C28.1894772,165.22161 26.6739388,167.149925 26.251476,169.45068 C25.4824141,173.64193 28.5340493,177.741368 28.1417004,181.984009 C24.6490706,177.46507 24.1808579,171.077868 26.0820854,165.696831 C27.983313,160.315795 31.9893263,155.873076 36.6051454,152.501484 C39.2725393,150.553247 42.2836366,148.877556 45.576762,148.579892 C48.3417364,148.330156 51.1093168,149.073015 53.6802884,150.118445" id="Fill-87" fill="#E1E5DA" sketch:type="MSShapeGroup"></path>
                <path d="M215.116108,117.914798 C213.166815,117.320626 211.218389,116.53908 209.714723,115.166537 C208.211346,113.794284 207.216719,111.727097 207.579534,109.727181 C208.973748,114.162104 213.690622,117.037399 218.350164,117.17165 C223.009417,117.305613 227.493777,115.099267 230.996252,112.032267 C234.498727,108.965555 237.160909,105.078032 239.751859,101.214472 C241.166343,99.1057112 242.613546,96.8742469 242.843454,94.3477178 C243.261863,89.7450521 239.56191,85.6152986 239.568281,80.9935778 C243.78567,85.5335928 244.919863,92.3873552 243.395927,98.3862379 C241.871413,104.385121 237.981511,109.576184 233.326892,113.669848 C230.637492,116.035564 227.549372,118.140572 224.021417,118.784114 C221.058965,119.324296 217.996037,118.792775 215.116108,117.914798" id="Fill-88" fill="#E1E5DA" sketch:type="MSShapeGroup"></path>
                <path d="M66.1943384,218.798405 C64.3681059,219.701789 62.4138896,220.468034 60.3757018,220.500081 C58.3372245,220.532417 56.1907427,219.711316 55.0768191,218.009063 C59.1447974,220.277483 64.5540012,219.137066 68.0327322,216.043504 C71.5114632,212.949942 73.2508287,208.275098 73.6837156,203.647603 C74.1166024,199.019819 73.3736006,194.371248 72.5952729,189.788792 C72.1704936,187.28767 71.6854866,184.674527 70.1120369,182.680962 C67.2454282,179.04895 61.7114256,178.581524 58.5323855,175.218304 C64.725129,175.629431 70.2707139,179.833962 73.2954204,185.237806 C76.3201269,190.641651 77.0686303,197.078512 76.5057326,203.241384 C76.1805607,206.80295 75.3863074,210.447665 73.2653065,213.331332 C71.4845344,215.753058 68.8924252,217.463973 66.1943384,218.798405" id="Fill-89" fill="#E1E5DA" sketch:type="MSShapeGroup"></path>
            </g>
        </g>
    </g>
</svg>