<?xml version="1.0" encoding="UTF-8" standalone="no"?>
<svg width="284px" height="283px" viewBox="0 0 284 283" version="1.1" xmlns="http://www.w3.org/2000/svg" xmlns:xlink="http://www.w3.org/1999/xlink" xmlns:sketch="http://www.bohemiancoding.com/sketch/ns">
    <!-- Generator: Sketch 3.3.1 (12005) - http://www.bohemiancoding.com/sketch -->
    <title>margarita</title>
    <desc>Created with Sketch.</desc>
    <defs></defs>
    <g id="Pizzas" stroke="none" stroke-width="1" fill="none" fill-rule="evenodd" sketch:type="MSPage">
        <g id="iPhone-6-Plus-Copy" sketch:type="MSArtboardGroup" transform="translate(-65.000000, -350.000000)">
            <g id="margarita" sketch:type="MSLayerGroup" transform="translate(65.551682, 350.455395)">
                <path d="M172.192544,272.595099 C100.196215,289.108809 28.3898322,244.369623 11.8083366,172.667616 C-4.7728704,100.965609 40.1499609,29.4527707 112.146289,12.9393478 C184.142328,-3.57436259 255.949,41.1648239 272.530207,112.866831 C289.111414,184.568837 244.188872,256.081676 172.192544,272.595099" id="Fill-1" fill="#C2523A" sketch:type="MSShapeGroup"></path>
                <path id="Fill-2" fill="#F7CE74" sketch:type="MSShapeGroup" d="M50.1901934,249.646501 C50.1870181,249.643626 50.1838427,249.640463 50.1806673,249.637589 C50.1754713,249.634139 50.1708526,249.630976 50.1659452,249.627526 L50.1901934,249.646501"></path>
                <path d="M173.145155,279.260266 C176.247492,278.434882 179.325003,277.517502 182.37942,276.530261 C189.208776,274.322626 195.9192,271.765978 202.563518,269.06041 C212.677362,264.942116 221.99996,259.283451 229.900282,251.66698 C237.625381,244.219265 245.069604,236.482336 252.637089,228.872477 C252.812889,228.704583 252.988978,228.536688 253.164778,228.368794 C253.790037,227.505462 254.382388,226.616256 255.04604,225.78311 C257.474044,222.735141 259.611357,219.377546 262.235945,216.503796 C262.852833,215.828483 263.512733,215.190255 264.084877,214.476705 C265.406697,212.82795 265.744729,210.976515 266.568594,209.122492 C267.544876,206.925781 268.685988,204.789731 269.729242,202.623207 C271.817481,198.286133 273.854625,193.922898 275.723475,189.486928 C279.951048,179.452379 282.525696,168.886261 282.704094,157.936918 C282.878451,147.230217 282.649247,136.517192 282.596997,125.807041 C282.602482,125.564687 282.60739,125.322045 282.612586,125.079691 C282.441693,124.028628 282.229232,122.98274 282.107124,121.926214 C281.225526,114.305718 279.796032,106.800793 276.4974,99.8153618 C271.012669,88.1999052 265.2996,76.6911074 259.822664,65.072201 C255.532738,55.9717065 249.117046,48.6568121 241.312563,42.4522039 C235.764614,38.0415331 230.054143,33.8269304 224.604919,29.2992511 C213.834928,20.3508388 201.824234,13.6393859 188.659437,8.91333851 C176.300029,4.47650606 163.559577,1.78387516 150.486866,0.567792658 C142.7329,-0.153519635 135.068133,0.0776222874 127.49805,2.11448861 C119.278748,4.32614882 111.021053,6.39693895 102.803195,8.61377398 C99.1061974,9.61107663 95.33328,10.5051704 91.8247843,11.9854561 C83.6912173,15.4172237 75.613075,19.0045234 67.6723396,22.8554513 C60.3034595,26.4283764 53.3638318,30.8051235 47.7258173,36.8176883 C42.8943469,41.9700833 38.2597495,47.3251586 33.8194269,52.8165042 C27.0036387,61.2454222 19.748206,69.3690258 14.4652556,78.9312291 C14.3795206,79.0764116 14.2934969,79.221594 14.2077619,79.3667764 L14.2169994,79.3549893 C13.0383596,82.0007594 11.6980646,84.5887439 10.7134111,87.304374 C9.18490326,91.5184017 7.72740824,95.7574411 6.27482061,99.9979179 C5.5320726,102.165305 4.82165564,104.347353 4.04109186,106.501516 C3.75415384,107.29355 3.21001082,107.847256 2.93519694,108.65884 C2.60178305,109.643206 2.43060172,110.674432 2.2747199,111.698759 C1.91965575,114.033752 1.77127935,116.392032 1.44219551,118.726738 C1.13909197,120.876876 0.775079051,123.074161 0.646043544,125.25851 C0.616310531,125.776855 0.586288847,126.295486 0.556267163,126.814118 C0.478037582,128.003177 0.400096672,129.192235 0.321867092,130.381294 C0.283185307,133.61843 0.135963588,136.858442 0.22891534,140.091554 C0.398653322,146.01241 0.710128293,151.929528 0.962714576,157.848084 C1.71527736,166.640389 4.06158743,175.127092 5.95670623,183.700618 C6.48324038,186.069535 7.3867776,188.415741 8.09113249,190.739234 C8.80097211,193.079978 9.69440588,195.348561 10.593613,197.623469 C12.4425446,202.300355 14.4164704,206.928081 16.5122148,211.500609 C16.8958573,212.337492 17.2867165,213.178113 17.8242201,213.926162 C18.1844804,214.427831 18.6062273,214.882066 19.0268195,215.334575 C19.8798395,216.252243 20.7394989,217.164161 21.5855907,218.087866 C22.2385624,218.800841 22.5338718,219.634275 23.0794582,220.425734 C24.5398399,222.544823 26.0195625,224.651837 27.5454723,226.724927 C29.0895684,228.823603 30.9180044,230.71385 32.5925793,232.719092 C32.8659498,233.046256 33.0062434,233.483816 33.2083125,233.870202 C34.0679718,234.810582 34.9276312,235.750674 35.7872906,236.691053 C35.8972739,236.684154 36.1007862,236.65943 36.1033843,236.672942 C36.5776691,239.148805 39.4984326,239.195953 40.5350467,241.105462 C40.8257374,241.258119 41.1660794,241.357015 41.3993248,241.571483 C43.0178977,243.062406 44.614243,244.57719 46.2178051,246.084213 C46.5067638,246.344966 46.7957225,246.605432 47.0849699,246.865898 C47.522305,247.240497 47.9596401,247.614809 48.3972638,247.989121 L48.384851,247.981359 C48.9835527,248.533627 49.5819657,249.085608 50.1806673,249.637589 C51.2302716,250.349989 52.2804532,251.062389 53.3300574,251.774501 C58.4805083,255.038087 63.5683177,258.406032 68.8053695,261.525298 C71.8291881,263.326135 75.1015517,264.711549 78.242859,266.321493 C78.7601558,266.586846 79.1778613,267.045393 79.641754,267.414817 C80.5799317,267.794591 81.5181093,268.174366 82.4562869,268.55414 C84.9873458,269.672188 87.5212914,270.783912 90.0483089,271.910585 C91.6045291,272.604298 93.1509345,273.320436 94.7016699,274.026511 C94.9554109,274.075959 95.2091518,274.12512 95.4631815,274.174569 C99.1024446,275.43205 102.741419,276.689818 106.380682,277.947299 C107.634376,278.380547 108.975537,278.440344 110.282058,278.596452 C111.596373,278.753134 112.591129,279.20133 113.837029,279.593754 C116.287838,280.36624 118.899724,280.420288 121.448392,280.418563 C124.781665,280.416263 128.116381,280.330303 131.447345,280.460536 C134.257548,280.570645 137.059379,280.834273 139.859479,281.097902 C145.429367,281.621996 150.892159,282.06013 156.491203,281.616821 C158.279802,281.475376 160.064649,281.286782 161.846032,281.074327 C165.240503,280.669254 168.753906,280.399876 172.06524,279.543731 C172.4255,279.450297 172.785472,279.356 173.145155,279.260266 L173.145155,279.260266 Z M160.781994,267.910162 C154.749656,268.320123 148.697689,268.547815 142.651207,268.61825 C134.341551,268.714559 126.064226,268.267512 117.844058,266.8407 C111.166543,265.68154 104.777986,263.68981 98.6140149,260.946293 C94.682329,259.196629 90.8034697,257.329095 86.9009395,255.514458 C83.9591031,254.16843 80.9543367,252.941711 78.0910186,251.446188 C74.468787,249.554216 70.8067189,247.668857 67.4437129,245.371238 C63.0573717,242.374442 58.9383389,238.988673 54.7338598,235.732274 C54.3193297,235.411436 54.1109099,234.826681 53.806363,234.364685 C52.1404482,233.071842 50.3342398,231.922458 48.8351763,230.460284 C43.1997598,224.962901 38.365114,218.784167 33.7498575,212.431214 C29.4140335,206.46321 25.6067644,200.193916 22.9296384,193.299907 C22.0795052,191.110096 21.2478468,188.896424 20.6468358,186.630715 C19.0490471,180.607801 17.3487806,174.597536 16.1118295,168.497287 C13.7889017,157.043687 13.2727597,145.441167 13.699414,133.765913 C14.016085,125.096653 14.8376399,116.514216 17.4503925,108.220993 C19.2317753,102.566353 21.3047148,96.9939354 23.462812,91.4683785 C26.5726543,83.5069192 31.5680893,76.7005946 36.9806525,70.1521484 C41.9755102,64.1088221 46.6866052,57.8294666 51.7660432,51.8594502 C56.5016752,46.2930697 61.8622778,41.4025781 68.3105891,37.7209818 C76.7616931,32.8960379 85.5167667,28.728296 94.5120137,25.0512995 C97.1527672,23.9714873 99.9205355,23.1590407 102.684262,22.4259413 C108.56476,20.8660208 114.492599,19.4829066 120.378292,17.941673 C124.238677,16.9305708 128.032378,15.6604402 131.90431,14.7002238 C138.099457,13.1638775 144.398238,13.1431782 150.684028,14.0142727 C156.52873,14.8241319 162.428279,15.4810465 168.154338,16.8328243 C174.380374,18.3027604 180.44562,20.4592225 186.559363,22.3845427 C191.991267,24.095108 197.073303,26.6324943 201.860318,29.6433766 C206.799462,32.749993 211.606396,36.0960886 216.264664,39.6089283 C222.350406,44.1984179 228.289215,48.987713 234.189342,53.8143819 C240.908425,59.3106148 245.921469,66.0738159 249.362705,74.0798362 C252.189362,80.6550189 255.357515,87.0881816 258.483523,93.5319814 C261.508208,99.7664885 265.190772,105.710343 266.905472,112.513793 C268.48594,118.784524 269.349063,125.160764 269.403333,131.627563 C269.473769,140.011345 269.691426,148.402026 269.438262,156.777759 C269.188852,165.038782 267.629456,173.123287 264.615452,180.877179 C264.465632,181.235104 264.316101,181.593029 264.166282,181.950954 C263.22897,184.516514 262.4715,187.165447 261.318552,189.631248 C258.435315,195.797908 255.395908,201.892695 252.375265,207.994956 C247.658397,212.920234 243.985359,218.825565 239.174962,223.696795 C233.272525,229.674574 227.468814,235.761311 221.343236,241.50536 C215.301372,247.170925 208.458449,251.789451 200.821972,255.149921 C200.461712,255.297691 200.102029,255.445173 199.742057,255.592943 C197.257763,256.74664 194.841306,258.086631 192.275318,259.018098 C187.987413,260.575144 183.594433,261.913985 179.318363,263.428482 C176.300607,264.497657 173.34145,265.771237 170.218618,266.518424 C167.207212,267.239448 163.87365,267.700007 160.781994,267.910162 L160.781994,267.910162 Z" id="Fill-3" fill="#F7CE74" sketch:type="MSShapeGroup"></path>
                <path d="M227.990441,211.24618 C226.927269,218.152264 230.160085,226.936807 224.543432,231.122373 C219.834935,234.6309 212.905988,231.337416 207.330615,233.1992 C199.064549,235.959967 196.205561,248.996773 187.487437,248.928063 C183.651301,248.897589 179.967582,246.042239 176.271162,247.063978 C171.548232,248.369758 170.104882,255.081786 165.430737,256.552297 C162.956257,257.33082 160.313771,256.386128 157.821683,255.66654 C149.295525,253.204764 140.018824,253.390482 131.598897,256.191784 C126.793695,257.790516 121.786136,260.250855 116.90819,258.88844 C113.603207,257.96531 111.047611,255.438561 108.412919,253.2476 C100.717842,246.848074 91.142657,242.718568 81.1916235,241.507085 C78.5901291,241.190559 75.8408357,241.027552 73.6408813,239.609651 C69.8567058,237.170874 68.8988986,231.825861 65.2342325,229.212865 C62.970482,227.598896 59.7362229,227.057265 58.4323004,224.607563 C57.0224359,221.958631 58.739734,218.760018 58.6389881,215.76351 C58.5656659,213.578874 57.5163503,211.560407 56.491283,209.627612 C50.7360685,198.777741 44.9808539,187.92787 39.2259281,177.077999 C38.0565258,174.873239 36.8784633,172.646917 36.2122129,170.243501 C35.6305428,168.144536 35.452722,165.9553 35.3990294,163.778714 C35.2792313,158.929046 35.761599,154.086565 36.2428119,149.259321 C37.8417552,133.224569 39.4406986,117.190105 41.0396419,101.155352 C41.4013455,97.5289542 41.7633377,93.8947937 41.7445742,90.2508585 C41.7330274,87.9262148 41.5733928,85.5460855 42.2728403,83.328388 C43.2569165,80.209122 45.786532,77.8583166 48.2159791,75.659306 C60.2408182,64.7749363 72.2656572,53.8905667 84.2904963,43.0064846 C85.7107529,41.7208295 87.2239613,40.3860136 89.1003165,39.9829527 C92.853027,39.1768309 96.2480753,42.3038591 100.002518,43.1030812 C106.986889,44.5896917 112.891924,38.029746 119.688948,35.8448223 C128.597306,32.9811349 138.069436,37.8943382 147.430139,37.9308494 C152.753503,37.9518362 157.956492,36.3841535 163.266,35.997767 C170.634014,35.4618857 177.955552,37.2083872 185.135065,38.9425266 C190.80974,40.3129912 196.877296,41.9168976 200.654832,46.3508552 C203.80249,50.0451011 204.789742,55.070138 207.132588,59.3160771 C211.590519,67.3948323 220.396398,71.8845629 227.511538,77.7812693 C236.159226,84.9483938 242.627455,94.6902784 245.86258,105.421703 C247.355582,110.372855 248.592244,116.108855 253.08395,118.700002 C255.742601,120.233761 259.156702,120.353357 261.483382,122.352274 C264.70494,125.11994 264.431858,130.083167 263.873281,134.283682 C262.931062,141.373759 261.92014,148.561583 259.059131,155.121242 C256.315611,161.412384 251.564968,163.584946 247.780504,168.523448 C243.10174,174.632897 242.734841,182.963781 239.652711,189.761193 C236.347727,197.050501 229.238362,203.144426 227.990441,211.24618" id="Fill-4" fill="#F4B271" sketch:type="MSShapeGroup"></path>
                <path d="M138.048074,107.886642 C140.349352,104.813375 143.068046,102.689111 146.997423,101.999998 C151.799449,101.157652 157.201042,104.418076 159.118678,108.844846 C161.327581,113.943481 160.519016,119.884173 158.133447,124.804276 C156.607826,127.951141 154.153842,130.722544 150.988863,132.231579 C150.12141,132.645277 149.1968,132.964678 148.238704,133.048625 C145.952148,133.249293 143.784525,132.113421 141.781155,130.997385 C139.562148,129.761465 137.247303,128.098048 136.518989,125.524151 C135.864285,123.209857 135.186488,120.622447 135.081701,118.209256 C134.924376,114.59407 135.857069,110.81329 138.048074,107.886642 L138.048074,107.886642 Z M146.699804,108.921031 C149.132715,110.240035 151.558987,110.01838 153.989588,109.025677 C155.536571,108.393775 155.721608,106.899114 154.771018,105.495301 C153.211623,103.192506 148.118328,102.424046 145.650777,103.433423 C143.808773,104.186934 143.480844,106.290498 144.946999,107.66125 C145.468049,108.148258 146.111783,108.505033 146.699804,108.921031 L146.699804,108.921031 Z" id="Fill-5" fill="#D0AB21" sketch:type="MSShapeGroup"></path>
                <path d="M146.699804,108.921031 C146.111783,108.505033 145.468049,108.148258 144.946999,107.66125 C143.480844,106.290498 143.808773,104.186934 145.650777,103.433423 C148.118328,102.424046 153.211623,103.192506 154.771018,105.495301 C155.721608,106.899114 155.536571,108.393775 153.989588,109.025677 C151.558987,110.01838 149.132715,110.240035 146.699804,108.921031" id="Fill-6" fill="#AD8404" sketch:type="MSShapeGroup"></path>
                <path d="M102.610652,141.976913 C105.276519,139.211548 108.238851,137.439172 112.223364,137.240516 C117.093516,136.997587 122.047383,140.899689 123.399513,145.529427 C124.956311,150.861503 123.414524,156.65615 120.434872,161.243915 C118.529072,164.178038 115.749468,166.625152 112.421103,167.731701 C111.508617,168.03529 110.551387,168.237971 109.590116,168.203184 C107.296344,168.119812 105.286912,166.724911 103.437691,165.370258 C101.389866,163.869848 99.2996063,161.933316 98.8977776,159.289558 C98.536074,156.912304 98.1859173,154.261072 98.3819242,151.853343 C98.676079,148.246782 100.071799,144.610321 102.610652,141.976913 L102.610652,141.976913 Z M111.066663,144.071565 C113.316557,145.680934 115.751778,145.760569 118.287167,145.07548 C119.900832,144.639358 120.270619,143.178909 119.502179,141.668724 C118.241268,139.191136 113.283072,137.799684 110.709001,138.49656 C108.787613,139.016917 108.20017,141.063558 109.484463,142.605079 C109.940273,143.152747 110.535221,143.585995 111.066663,144.071565 L111.066663,144.071565 Z" id="Fill-7" fill="#D0AB21" sketch:type="MSShapeGroup"></path>
                <path d="M111.066663,144.071565 C110.535221,143.585995 109.940273,143.152747 109.484463,142.605079 C108.20017,141.063558 108.787613,139.016917 110.709001,138.49656 C113.283072,137.799684 118.241268,139.191136 119.502179,141.668724 C120.270619,143.178909 119.900832,144.639358 118.287167,145.07548 C115.751778,145.760569 113.316557,145.680934 111.066663,144.071565" id="Fill-8" fill="#AD8404" sketch:type="MSShapeGroup"></path>
                <path d="M148.962688,176.661714 C145.918663,174.314646 143.835331,171.568829 143.214402,167.644016 C142.455488,162.846959 145.826577,157.527245 150.305581,155.697946 C155.464403,153.590933 161.413604,154.503426 166.310025,156.96779 C169.441807,158.543809 172.179553,161.037497 173.637337,164.215986 C174.037145,165.087368 174.340826,166.013948 174.408086,166.969565 C174.568009,169.249935 173.388503,171.387711 172.231803,173.362479 C170.950685,175.549703 169.238872,177.824898 166.641996,178.503087 C164.306655,179.113141 161.69679,179.741306 159.271961,179.802254 C155.639915,179.893388 151.861224,178.896661 148.962688,176.661714 L148.962688,176.661714 Z M150.157494,168.065477 C151.525789,165.666661 151.347103,163.246858 150.394203,160.808655 C149.787996,159.256785 148.290664,159.045479 146.864057,159.966597 C144.524098,161.477644 143.660397,166.535455 144.629174,169.010744 C145.352292,170.858442 147.45814,171.222979 148.860788,169.788116 C149.359321,169.278109 149.728819,168.643331 150.157494,168.065477 L150.157494,168.065477 Z" id="Fill-9" fill="#D0AB21" sketch:type="MSShapeGroup"></path>
                <path d="M150.157494,168.065477 C149.728819,168.643331 149.359321,169.278109 148.860788,169.788116 C147.45814,171.222979 145.352292,170.858442 144.629174,169.010744 C143.660397,166.535455 144.524098,161.477644 146.864057,159.966597 C148.290664,159.045479 149.787996,159.256785 150.394203,160.808655 C151.347103,163.246858 151.525789,165.666661 150.157494,168.065477" id="Fill-10" fill="#AD8404" sketch:type="MSShapeGroup"></path>
                <path d="M182.453897,136.964526 C178.774509,135.698995 174.829544,135.229237 170.948664,135.382469 C166.017314,135.577387 161.178338,136.654612 156.418458,137.889094 C151.706786,139.111214 146.957586,140.268361 142.234078,141.50198 C141.599293,141.667574 140.964219,141.833456 140.329433,141.99905 C142.253131,142.500433 144.225324,142.425973 146.042213,143.20852 C147.938487,144.024992 149.805027,144.913048 151.739405,145.639248 C156.266906,147.339176 161.098377,148.045251 165.886547,148.74069 C169.329225,149.240635 172.772193,149.74058 176.21516,150.240812 C182.805786,151.197866 189.625904,150.864378 194.558409,145.816629 C193.157782,143.629693 191.16134,142.060573 189.188281,140.447754 C187.230809,138.847585 184.831095,137.782147 182.453897,136.964526" id="Fill-11" fill="#486406" sketch:type="MSShapeGroup"></path>
                <path d="M170.432522,137.55503 C162.770931,136.296687 155.030244,138.603794 147.548205,140.673146 C145.723233,141.177979 143.878632,141.672749 141.987843,141.782283 C137.072081,142.066898 131.95627,139.761228 127.351695,141.499393 C132.345975,141.754971 137.304749,142.689313 142.047597,144.268208 C144.972402,153.590645 155.067771,159.478152 164.874469,159.556062 C174.681457,159.634259 183.99222,154.833177 191.395452,148.427325 C185.003142,143.707028 178.284347,138.844423 170.432522,137.55503" id="Fill-12" fill="#8BA728" sketch:type="MSShapeGroup"></path>
            </g>
        </g>
    </g>
</svg>